<svg id="Layer_1" data-name="Layer 1" xmlns="http://www.w3.org/2000/svg" viewBox="0 0 2000 1200"><defs><style>.cls-1{fill:#231f20;}</style></defs><title>Astalift</title><path class="cls-1" d="M1073.61,780.86h0c0,3-1.52,6.07-4.55,6.07h-25.8c-3,0-7.59-3-7.59-6.07L932.46,421.15s-1.52-4.55-4.55-4.55-4.56,4.55-4.56,4.55L847.47,668.54c0,3,1.51,6.07,4.55,6.07h88a6.54,6.54,0,0,1,6.07,6.07v6.08a6.54,6.54,0,0,1-6.07,6.07H846c-3,0-7.59,3-7.59,6.07l-25.8,82c-1.52,3-6.07,6.07-9.11,6.07h-6.07c-3,0-4.55-3-4.55-6.07l119.9-384c3-12.14,12.14-21.24,24.28-21.24,10.63,0,19.73,4.55,24.29,21.24Z"/><path class="cls-1" d="M328.39,780.86h0c1.52,3,0,6.07-3,6.07h-25.8c-3,0-7.59-3-7.59-6.07L188.76,421.15s-1.52-4.55-4.55-4.55-4.55,4.55-4.55,4.55L103.77,668.54c0,3,1.52,6.07,4.55,6.07h88a6.53,6.53,0,0,1,6.07,6.07v6.08a6.53,6.53,0,0,1-6.07,6.07h-94.1c-3,0-7.59,3-9.11,6.07l-25.8,82c0,3-4.55,6.07-7.59,6.07H53.68c-3,0-4.55-3-4.55-6.07l119.9-384c3-12.14,12.14-21.24,24.28-21.24,9.11,0,19.74,4.55,24.29,21.24Z"/><path class="cls-1" d="M468,392.31h0c-36.43,3-56.16,22.77-60.71,45.53-7.59,41,30.35,78.93,75.89,116.87,37.94,30.36,69.81,53.12,83.47,98.66,13.66,47-16.69,118.38-83.47,132-19.74,4.55-45.54,3-69.82-9.11-22.77-12.14-50.09-39.46-62.23-88,0-1.51-1.52-6.07,0-6.07,1.52-1.52,4.55-1.52,6.07-1.52,3,0,4.56,3,6.07,7.59C378.48,735.32,410.35,752,424,758.09c77.41,30.36,147.22-54.64,91.07-129-18.21-22.77-42.5-45.53-69.82-68.3-53.12-45.53-69.81-77.4-66.78-118.38,4.55-44,48.57-63.75,78.92-68.3,33.39-4.55,68.3,12.14,86.52,44,1.51,1.52,3,3,1.51,6.07,0,1.52-1.51,3-3,4.56-3,1.52-3-1.52-6.07-3C531.77,418.11,502.94,390.79,468,392.31Z"/><path class="cls-1" d="M1950.87,390.79h0c0,4.56-3,7.59-6.07,7.59h-83.48c-3,0-6.07,1.52-6.07,6.07V780.86a6.53,6.53,0,0,1-6.07,6.07h-19.73c-4.55,0-7.59-3-7.59-6.07V404.45c0-3-1.52-6.07-6.07-6.07h-83.47c-4.56,0-6.08-3-6.08-6.07v-6.07c0-3,1.52-6.07,6.08-6.07H1944.8a6.53,6.53,0,0,1,6.07,6.07Z"/><path class="cls-1" d="M812.56,390.79h0c0,4.56-1.52,7.59-6.07,7.59h-82c-3,0-6.07,1.52-6.07,6.07V780.86c0,3-3,6.07-7.59,6.07H691.14a6.53,6.53,0,0,1-6.07-6.07V404.45a6.54,6.54,0,0,0-6.07-6.07H594a6.53,6.53,0,0,1-6.07-6.07v-6.07a6.54,6.54,0,0,1,6.07-6.07H806.49c4.55,0,6.07,3,6.07,6.07Z"/><path class="cls-1" d="M1319.49,780.86h0a6.54,6.54,0,0,1-6.07,6.07H1167.71c-15.18,0-31.87-12.15-31.87-31.88V384.72a6.53,6.53,0,0,1,6.07-6.07h22.77a6.54,6.54,0,0,1,6.07,6.07V764.16a6.52,6.52,0,0,0,6.07,6.07h136.6a6.54,6.54,0,0,1,6.07,6.07Z"/><path class="cls-1" d="M1407.52,780.86h0a6.54,6.54,0,0,1-6.07,6.07h-22.77a6.53,6.53,0,0,1-6.07-6.07V384.72a6.53,6.53,0,0,1,6.07-6.07h22.77a6.54,6.54,0,0,1,6.07,6.07Z"/><path class="cls-1" d="M1695.89,390.79h0c0,4.56-3,7.59-6.07,7.59H1551.7c-3,0-6.07,1.52-6.07,6.07V548.64a6.53,6.53,0,0,0,6.07,6.07h127.49c4.56,0,7.59,3,7.59,6.07v4.56c0,3-3,6.07-7.59,6.07H1551.7c-3,0-6.07,3-6.07,7.59V780.86a6.53,6.53,0,0,1-6.07,6.07h-22.77a6.54,6.54,0,0,1-6.07-6.07V413.56c0-21.25,18.22-33.39,33.39-33.39h145.71a6.54,6.54,0,0,1,6.07,6.07Z"/></svg>