<svg id="Layer_1" data-name="Layer 1" xmlns="http://www.w3.org/2000/svg" viewBox="0 0 1600 1200"><defs><style>.cls-1{fill:#231f20;}</style></defs><title>Astro</title><path class="cls-1" d="M901.34,666.49c-26.07,0-41.37-9-41.37-47V448.86l71-5.95V393.13H860v-74H783.05v74h-42.5v49.78l42.5,5.95V636.65c0,73.75,40.1,98.54,96.65,98.54,18.33,0,41.81-4.93,61.3-11.91V663.44a234.3,234.3,0,0,1-39.66,3"/><path class="cls-1" d="M1321.5,669.44c-55.5,0-91.72-47.93-91.72-108.19,0-60.85,36.22-108.78,91.72-108.78s91.71,47.46,91.71,108.78S1377,669.44,1321.5,669.44m0-282.66c-89.14,0-165.2,65.22-165.2,174.59,0,108.55,76.06,173.82,165.2,173.82s165.12-63.36,165.12-173.82-76-174.59-165.12-174.59"/><path class="cls-1" d="M364.53,599.19c0,47.26-27.78,78.77-88.95,78.77-36.25,0-64.91-18.4-64.91-50.22,0-34.36,28.66-54.16,77-54.16,28.67,0,55.72,6,76.87,15.11ZM279.24,386.78c-45.81,0-85,16.89-112.4,31.2l12.66,54.69c23.68-10.14,52.63-21.77,90.44-21.77,61.88,0,94.59,29.6,94.59,87.12a272.35,272.35,0,0,0-94-16.43c-72.21,0-128.85,37.5-128.85,110,0,67.29,54.76,103.59,112.33,103.59,56.17,0,91.3-16.09,110.57-38l10.17,31.56h64.22V528.86c0-89.63-60.5-142.08-159.68-142.08"/><path class="cls-1" d="M691.27,467c-14.67-6-49.38-16.8-81.83-16.8-28.63,0-43.16,15.89-43.16,31.59,0,15,7.61,24.35,33.44,34.84l62.7,25.28c36.35,14.66,64.89,43,64.89,87.43,0,71.74-62.15,105.9-131.8,105.9-35.53,0-90-13.79-120.33-34.86l13.25-56.16c42.46,18,85.22,28.14,109.1,28.14,30.08,0,50.51-13.71,50.51-36.18C648,617,634,606.45,605.93,595.8l-54-20.53c-38.81-14.7-70.29-44.34-70.29-90.81,0-67,62.83-97.68,123.55-97.68,39.63,0,82.11,13.24,100.07,20.49Z"/><path class="cls-1" d="M1059.11,447.56V393.13H985.5V728.76h76.81V576.05c0-88.2,44.63-118.4,98-118.4V386.78c-35.92,0-80.63,17.21-101.24,60.78"/><path class="cls-1" d="M1482,750.31c-4.78,8.32-79.14,144.15-367.39,144.15-200.26,0-447.79-65.09-686-65.09-111.92,0-202.59,5.39-276.56,26.75-5,1.41-10.5,0-10.5-4.09s4.95-6.94,9.37-9.24C208,813.35,323.07,774.08,472,774.08c271.29,0,484.42,51.48,684.71,51.48,218,0,310.49-80.48,317.7-86.42,9.24-7.7,12.17-2.41,12.17.05,0,3.18-2.61,7.62-4.65,11.12"/></svg>