<svg id="Layer_1" data-name="Layer 1" xmlns="http://www.w3.org/2000/svg" viewBox="0 0 2139.16 1200"><defs><style>.cls-1,.cls-2{fill:#231f20;}.cls-2{fill-rule:evenodd;}</style></defs><title>Breadtalk</title><g id="_Group_" data-name="&lt;Group&gt;"><polygon id="_Path_" data-name="&lt;Path&gt;" class="cls-1" points="1222.54 483.61 1304.64 483.61 1304.85 762.82 1373.43 762.81 1373.21 483.61 1453.38 483.59 1464.44 427.66 1222.5 427.68 1222.54 483.61 1222.54 483.61"/><path id="_Path_2" data-name="&lt;Path&gt;" class="cls-1" d="M1692.27,420.89c2.43,22.17,3.41,41.95,3.43,74.26l.15,184.2c0,35.21,1,42.93,5.84,55.47,7.74,20.73,30,33.75,57.49,33.75,14,0,27.52-2.41,38.62-6.76l-11.13-38.57a21.49,21.49,0,0,1-7.25,1c-5.31,0-10.62-2.41-13-6.75-3.87-6.75-4.36-12.54-4.39-55l-.14-192.4c0-34.71-1-50.62-3.44-64.13l-66.14,14.95Z"/><polygon id="_Path_3" data-name="&lt;Path&gt;" class="cls-1" points="1890.77 622.93 1973.93 762.76 2050.23 762.75 1953.05 619.06 2031.69 514.89 1953.94 514.9 1890.77 622.93 1890.77 622.93"/><path id="_Path_4" data-name="&lt;Path&gt;" class="cls-1" d="M1824.51,484.53l.21,278.25h64.71l-.22-278.25c0-32.78-1-61.72-3.92-80l-65.18,15.92c3.87,25.55,4.37,42.44,4.4,64.13Z"/><path id="_Compound_Path_" data-name="&lt;Compound Path&gt;" class="cls-2" d="M1571.89,707.81c-9.65,10.62-21.71,16.89-33.79,16.89-16.42,0-28.5-13-28.51-32.3,0-29.42,15.42-37.61,60.33-37.63l2,53Zm-98.6-116.2c26.55-17.85,50.68-28,71.45-28,23.66,0,29,9.16,29,36.66v10.12l-14.49-.48c-78.71,0-118.77,27-118.73,84.89,0,49.18,30,77.15,85,77.15,20.29,0,37.67-4.84,49.73-13.51,4.83-3.38,5.8-4.35,15-13,6.29,12.54,19.82,23.64,34.79,29.9l34.25-39.54c-18.84-14-23.19-24.12-23.21-50.64l1.37-87.28c0-26.53-1-34.24-4.37-44.37-9.68-27.48-38.18-42.91-79.71-42.91-22.7,0-43.45,4.34-67.6,14.47-17.37,6.75-24.13,10.13-40.06,20.26l27.56,46.29Z"/><path id="_Compound_Path_2" data-name="&lt;Compound Path&gt;" class="cls-2" d="M1941,358.45a54.73,54.73,0,1,1,54.73,54.73A54.74,54.74,0,0,1,1941,358.45Zm5.47,0a49.26,49.26,0,1,1,49.26,49.26,49.26,49.26,0,0,1-49.26-49.26Zm48.12-19.66a22.29,22.29,0,0,1,6.92.87c2.9,1.14,4.38,3.68,4.38,7.45a8.34,8.34,0,0,1-2.37,6.13c-1.66,1.49-3.93,2-9.2,2h-4.1l.09-16.47Zm-16.37,51h12V364.45a4.91,4.91,0,0,1,1.92.52c2.1,1,4,3.94,10.07,14.88,2.36,4.3,3.33,6,5.69,10h14.45s-11.12-19.26-14.62-23.64a11.11,11.11,0,0,0-2.54-2.54c7.52-.17,13.58-7.71,13.58-16.82,0-10.69-7.1-17.86-17.87-17.86l-22.68-.1v61Z"/><path id="_Path_5" data-name="&lt;Path&gt;" class="cls-1" d="M360.69,579.65l.15,183.25H398.5l-.12-150.46c0-19.76,2.89-27,14-38.11S437.94,557,452.43,557c4.34,0,5.79.47,10.62,1.92l15.42-41a45.2,45.2,0,0,0-13-2.42c-24.62,0-50.21,15.44-67.57,40,0-19.29-2.44-26.53-8.24-39.07L352,526.61c6.77,15.43,8.71,25.55,8.73,53Z"/><path id="_Compound_Path_3" data-name="&lt;Compound Path&gt;" class="cls-2" d="M180.64,607.16c16.42,0,29.46,1.44,38.64,3.36,23.66,5.31,40.1,29.41,40.12,58.34a75.08,75.08,0,0,1-5.29,27.5c-10.6,26.52-25.09,34.25-65.65,34.25H122.31l-.09-123.45Zm-11.7-141.77c16.91,0,27.05.47,36.22,2.89,22.7,5.29,37.69,26,37.7,52.07a63.61,63.61,0,0,1-5.28,25.55c-9.65,22.18-22.19,28.45-57.93,28.46H122.19l-.08-109ZM84.19,762.93h85.47c49.25,0,57.46-1,75.32-7.72,32.83-11.59,56-46.8,56-83,0-26-11.62-52.55-29.51-66.54-11.11-8.68-19.32-12.05-44-18.33,37.66-12,59.37-38.1,59.35-72.33,0-33.75-22.75-64.13-56.56-75.7-16.9-5.78-32.84-7.23-98.51-7.23H83.93l.26,330.82Z"/><path id="_Compound_Path_4" data-name="&lt;Compound Path&gt;" class="cls-2" d="M591.41,545.88c18.35,0,35.26,8.19,43.48,21.21,7.25,11.58,10.64,27.49,11.15,53.52H535.94c1.89-49.68,21.18-74.74,55.47-74.74Zm15.6,191c-24.14,0-46.36-8.68-59.9-29.41C538.89,694.89,536,677.52,536,654.87l150.18-5.81c-1-62.69-6.83-85.36-27.61-106.57C642.59,525.14,619.39,516,593.32,516c-29,0-52.63,11.1-71.93,33.77-20.75,23.63-28.93,50.16-28.9,90.65.06,79.58,40.17,127.8,106.82,127.79,30.91,0,59.88-10.61,81.11-29.91l-14.51-24.11C649,729.59,630.19,736.83,607,736.84Z"/><path id="_Compound_Path_5" data-name="&lt;Compound Path&gt;" class="cls-2" d="M873.1,703.55c-11.09,22.66-33.77,37.6-58.41,37.6-27.51,0-41.54-15.42-41.56-43.87,0-16.39,4.33-28.46,13.49-38.1,12.07-12.55,32.35-19.29,69-19.3l18.83,1-1.4,62.71ZM758.55,575.76c11.1-8.68,15.93-12.07,30.41-17.86,17.87-7.7,32.35-10.59,46.35-10.59,15,0,24.63,4.33,32.37,13,6.76,7.72,7.73,16.41,7.75,37.62v16.88l-16.9-.48c-80.64,0-127.46,31.83-127.42,86.33,0,15.42,5.82,36.65,19.36,49.19,12.57,11.56,27.54,19.28,58,19.28,27.53,0,46.36-9.17,69.51-32.31A49.39,49.39,0,0,0,910.81,772l19.31-27c-15.46-7.72-19.82-18.32-19.84-47.74l.47-11.09,1.87-79.09V595c0-22.19-1-30.38-5.34-41-10.16-24.6-33.35-37.61-66.67-37.61-34.77,0-69.05,11.1-100.9,32.31l18.85,27Z"/><path id="_Compound_Path_6" data-name="&lt;Compound Path&gt;" class="cls-2" d="M1141.14,701.59a45.59,45.59,0,0,1-14.48,17.35c-15,11.59-26.55,15.44-46.35,15.44-17.86,0-28.5-3.85-39.13-15.43-14.49-15.42-18.85-33.74-18.89-75.23,0-33.75,3.83-51.11,15.4-69.43,10.13-16.4,26-25.08,44.89-25.08,28.49,0,46.36,8.19,58.45,25.07l.11,127.31Zm.25-290.77.07,100.77.52,37.13c-14.51-19.29-38.18-30.86-65.22-30.85-17.38,0-30.9,4.82-46.34,15.43-32.83,22.66-49.69,60.28-49.65,111.39.06,76.68,35.82,121.52,98.12,121.52,18.83,0,35.25-4.34,47.31-13,6.28-3.87,9.17-7.23,16.41-15,1.46,12.07,1.94,15.44,5.33,24.61l38.64,0c-2.91-7.71-3.39-11.08-4.84-19.28-1.48-10.61-2.45-33.76-2.47-58.35l-.21-268.12-37.67-6.25Z"/></g></svg>