<svg id="Layer_1" data-name="Layer 1" xmlns="http://www.w3.org/2000/svg" viewBox="0 0 1543.46 1200"><defs><style>.cls-1{fill:#231f20;}</style></defs><title>ebay</title><path class="cls-1" d="M1408.67,452.79,1287.46,696.06,1165.9,452.79h-83.05l26.29,49.55C1084.71,457.48,1029.42,441,966.92,441c-70.36,0-150.4,19.26-158.29,95.44h74.59c3.24-30.55,34.73-48.23,77.45-48.23,57.55,0,90.76,21.29,90.76,73.09v7.55c-28.05,0-62,.11-92.19.8-96.25,2.2-156.93,23.2-171,79.75a186.28,186.28,0,0,0,4.2-39.78c0-115.25-87.85-168.62-167-168.62-47.17,0-95.1,12-129.89,53.48V316.14h-71V607.42C424.52,493.28,351.19,441,251.15,441,125.32,441,67.29,509.15,67.29,612.65c0,94,56.11,163.75,182.7,163.75,69.63,0,150.52-25.84,164.76-102H341.54C328.93,712,291.27,729.2,249,729.2c-61.1,0-105.53-38.11-109.36-102.55H424.68v64.66c0,22.7-1.2,50.77-2.41,73.3h69.65a383.42,383.42,0,0,0,2.42-43.29c29.9,36.6,78.38,55.08,129.88,55.08,82.86,0,145.48-49.85,163.2-123.21a117,117,0,0,0-2.26,23.61c0,53.42,46.78,99.6,134.16,99.6,58.91,0,101.37-12.62,137.07-56.5a384.82,384.82,0,0,0,2.41,44.71h66c-1.8-18.36-2.4-38.75-2.4-59.41V560.14c0-22-4.35-40.41-12.15-55.65L1248,764.16l-63.11,119.7h79.48l219.5-431.07ZM141.12,579.45c7.72-63.31,51.82-91.26,107.06-91.26,51.23,0,99.16,24.85,101.92,91.26Zm465.66,148.4c-65.6,0-111.12-47.49-111.12-119.15s45.52-119.15,111.12-119.15c66,0,111.12,47.49,111.12,119.15S672.76,727.85,606.78,727.85Zm444.65-104.48c0,66.58-39.75,107.18-114.24,107.18-55.55,0-77.43-29.75-77.43-57.2,0-42.4,40-54,104.36-56.13,29-1,61.2-1.18,87.32-1.18Z"/></svg>