<svg id="Layer_1" data-name="Layer 1" xmlns="http://www.w3.org/2000/svg" viewBox="0 0 1200 1200"><defs><style>.cls-1{fill:#231f20;}</style></defs><title>EMI</title><rect class="cls-1" x="1008.71" y="500.54" width="65.33" height="352.65"/><path class="cls-1" d="M212.22,741.47l175.5-97.13q-15.41-15.44-25-20.45-22.6-12.54-57-12.54-53,0-84.52,39.79Q192.52,687,192.52,739.32q0,45.54,30.06,79.21,33,36.57,86,36.56,53.4,0,81.33-29.39,25.06-25.43,35.83-81.35l64.84,8.95q0,57.06-46.33,106.22-55.31,58.86-140.71,58.84-71.76,0-125.61-51.92T124.06,741.78q0-91.69,60.64-145.42,52.07-46.15,120.62-46.2,59.94,0,102,27.12,41.23,27.87,70.68,84.25L240.16,793.47Z"/><path class="cls-1" d="M515.47,853.19V610.86q0-47.65,36.75-83.16,36-34.4,95.85-34.41,35.68,0,62.72,17.43,18.69,11.76,34.94,32,14.7-21,39.35-34.16,29.31-15.32,66.86-15.31,49.71,0,86.17,34.41Q975,562.48,975,610.86V853.19H909.61l-.35-223q0-29.4-12-49.53-17-26.22-50.3-26.22-36.12,0-54.18,25.15-13.82,19-13.82,50.6v223H712.54l-.37-218.65q0-35.87-16.84-58t-48.48-22.1q-38.77,0-54.18,27.31-11.86,20.46-11.87,57.42v214Z"/><path class="cls-1" d="M699.38,199.89c166.43,0,302,126.62,308.25,285.06h63.53c-1.37-165.25-138.26-298.82-307-298.82a311.59,311.59,0,0,0-94.38,14.58c.65.14,1.33.29,2,.41C680.9,200.36,690.09,199.89,699.38,199.89Z"/><path class="cls-1" d="M443.76,547.24c0-161.3,101.26-296.91,238.52-336.13A471.5,471.5,0,0,0,576,199c-230.6,0-417.51,164.72-417.51,367.91,0,10.42.5,20.76,1.5,31a176.09,176.09,0,0,1,20.85-18.82q54.93-42.34,127.23-42.35,63.24,0,107.56,24.86a182.61,182.61,0,0,1,29.89,22Q443.77,565.7,443.76,547.24Z"/><path class="cls-1" d="M554.83,873.44l-7.9,7c-2.77-3.86-5.63-5.8-8.48-5.8a5.16,5.16,0,0,0-3.43,1.14,3.24,3.24,0,0,0-1.34,2.53,4.34,4.34,0,0,0,.94,2.65c.87,1.13,3.49,3.52,7.86,7.21q6.09,5.1,7.4,6.42a23,23,0,0,1,4.63,6.27,15.55,15.55,0,0,1,1.36,6.53,15.13,15.13,0,0,1-4.77,11.39c-3.22,3-7.38,4.49-12.47,4.49a18.63,18.63,0,0,1-10.45-2.93c-3-2-5.5-5-7.62-9.25l9-5.43c2.7,5,5.81,7.45,9.32,7.45a7,7,0,0,0,4.64-1.61,4.72,4.72,0,0,0,1.86-3.7A6.25,6.25,0,0,0,544,904a40.68,40.68,0,0,0-6.25-5.84c-6.1-5-10.06-8.86-11.84-11.55a14.65,14.65,0,0,1-2.67-8.11,13.26,13.26,0,0,1,4.44-10,15.34,15.34,0,0,1,11-4.18,17.05,17.05,0,0,1,8,2C549.15,867.6,551.87,870,554.83,873.44Z"/><path class="cls-1" d="M609.71,864.31a27.73,27.73,0,0,1,20.42,8.63,30,30,0,0,1,.13,41.87,29.18,29.18,0,0,1-41.41-.24,29.49,29.49,0,0,1,20.86-50.26Zm-.14,10.37a17.61,17.61,0,0,0-13.1,5.44,19,19,0,0,0-5.29,13.8q0,9.36,6.65,14.76a18.24,18.24,0,0,0,11.92,4.25,17.3,17.3,0,0,0,12.91-5.5A18.73,18.73,0,0,0,628,893.84a18.93,18.93,0,0,0-5.37-13.59A17.56,17.56,0,0,0,609.57,874.68Z"/><path class="cls-1" d="M665.94,865.73h10.58v46H692.3v10.17H665.94Z"/><path class="cls-1" d="M717.2,865.73h10.59V902a18.57,18.57,0,0,0,.83,6.64,6.71,6.71,0,0,0,2.77,3.1,8.79,8.79,0,0,0,4.65,1.15,9.16,9.16,0,0,0,4.94-1.29,6.77,6.77,0,0,0,2.89-3.3q.81-2,.81-7.64v-35h10.57v33.5c0,5.63-.33,9.56-1,11.75a16.58,16.58,0,0,1-3.64,6.34,16.83,16.83,0,0,1-6.2,4.51,21,21,0,0,1-8.18,1.48,19.87,19.87,0,0,1-10.66-2.8,16.31,16.31,0,0,1-6.45-7q-2-4.22-2-14.26Z"/><path class="cls-1" d="M779.31,865.73h31.12v10.58H800.16v45.57H789.28V876.31h-10Z"/><path class="cls-1" d="M834.08,865.73h10.59v56.15H834.08Z"/><path class="cls-1" d="M900.29,864.31a27.78,27.78,0,0,1,20.45,8.63,28.73,28.73,0,0,1,8.54,21,28.38,28.38,0,0,1-8.44,20.82,29.17,29.17,0,0,1-41.4-.24A30.06,30.06,0,0,1,875,879a29.17,29.17,0,0,1,25.29-14.67Zm-.14,10.37a17.59,17.59,0,0,0-13.07,5.44,18.89,18.89,0,0,0-5.29,13.8c0,6.24,2.2,11.15,6.67,14.76a18.12,18.12,0,0,0,11.88,4.25,17.31,17.31,0,0,0,12.93-5.5,19.87,19.87,0,0,0,0-27.18A17.57,17.57,0,0,0,900.15,874.68Z"/><path class="cls-1" d="M956.65,865.73h10.06l24.34,37v-37h10.57v56.15H991.49L967.24,885v36.84H956.65Z"/><path class="cls-1" d="M1061,873.44l-7.91,7q-4.16-5.79-8.48-5.8a5.19,5.19,0,0,0-3.44,1.14,3.27,3.27,0,0,0-1.34,2.53,4.35,4.35,0,0,0,1,2.65,71.94,71.94,0,0,0,7.86,7.21c4.07,3.4,6.55,5.54,7.4,6.42a23,23,0,0,1,4.62,6.27,15.55,15.55,0,0,1,1.35,6.53,15,15,0,0,1-4.77,11.39c-3.18,3-7.34,4.49-12.45,4.49a18.63,18.63,0,0,1-10.45-2.93,23.3,23.3,0,0,1-7.63-9.25l9-5.43c2.7,5,5.81,7.45,9.35,7.45a6.9,6.9,0,0,0,4.61-1.61,4.73,4.73,0,0,0,1.87-3.7,6.37,6.37,0,0,0-1.4-3.82,41.24,41.24,0,0,0-6.23-5.84q-9.18-7.5-11.87-11.55a14.73,14.73,0,0,1-2.67-8.11,13.27,13.27,0,0,1,4.45-10,15.36,15.36,0,0,1,11-4.18,17.15,17.15,0,0,1,8,2A29.61,29.61,0,0,1,1061,873.44Z"/><rect class="cls-1" x="122.43" y="937.18" width="955.13" height="10.31"/><rect class="cls-1" x="122.43" y="959.32" width="955.13" height="10.31"/></svg>