<svg id="Layer_1" data-name="Layer 1" xmlns="http://www.w3.org/2000/svg" viewBox="0 0 3647.74 1200"><defs><style>.cls-1{fill:#231f20;}.cls-2{opacity:0.7;}</style></defs><title>HLB</title><path class="cls-1" d="M485.14,554a278.22,278.22,0,0,1-36.62-7,255.83,255.83,0,0,1-140.31-95.12l-40.45,23.24A304.92,304.92,0,0,0,436.45,591.51a329.67,329.67,0,0,0,48.69,8.79Z"/><path class="cls-1" d="M485.14,679.29V633a349.85,349.85,0,0,1-57-10.11,338.65,338.65,0,0,1-188.7-131.43l-40,23.1a379.92,379.92,0,0,0,84.44,88.46A389,389,0,0,0,416,667.6,396.25,396.25,0,0,0,485.14,679.29Z"/><path class="cls-1" d="M171.16,530.89a408.37,408.37,0,0,0,93.12,98,413.47,413.47,0,0,0,143.31,70,417.4,417.4,0,0,0,77.55,13V758.1a451.64,451.64,0,0,1-89.41-14.84A459.54,459.54,0,0,1,131.05,553.87Z"/><g class="cls-2"><path class="cls-1" d="M171.16,781.32a409,409,0,0,1,93.12-98.14,417.18,417.18,0,0,1,143.31-69.9,422.43,422.43,0,0,1,77.55-13V554A461.32,461.32,0,0,0,131.05,758.27Z"/><path class="cls-1" d="M485.14,633v46.26A337.57,337.57,0,0,0,239.41,820.81l-40-23.19a378.54,378.54,0,0,1,84.44-88.37A378.79,378.79,0,0,1,485.14,633Z"/><path class="cls-1" d="M485.14,758.1a270.37,270.37,0,0,0-36.62,7,256,256,0,0,0-140.31,95.16l-40.45-23.24A305.77,305.77,0,0,1,436.45,720.66a291.62,291.62,0,0,1,48.69-8.8Z"/></g><path class="cls-1" d="M1422.26,595.19c-45.93,0-71.91,32.14-71.91,82,0,50.93,28.05,83,76.72,83,26.82,0,44.73-5.28,57.08-11.5l-10.35-28.54c-8.67,4.33-22.81,8.43-41.27,8.43-23.59,0-34.31-10.6-38.58-34.78a84.11,84.11,0,0,1-1.17-8.81h96.57v-4.77h0C1491.38,626.43,1468.1,595.19,1422.26,595.19ZM1391,662.52h0c.87-26.85,12.11-40.26,29.13-40.26s26.16,12.28,26.51,40.26H1391Z"/><path class="cls-1" d="M676.6,757.18V669.09H625.27v88.09h-48.1V553.94h48.1v83.9H676.6v-83.9h48.17V757.18Z"/><path class="cls-1" d="M814.42,760.18c-46.17,0-70.3-35.14-70.3-82.7S768.25,595,813.88,595c46.36,0,70.58,34.93,70.58,82.44S860.24,760.18,814.42,760.18Zm0-136.46c-20.48,0-24.82,24.77-24.82,53.15,0,28.56,4.62,51.89,24.82,51.89S839,705.43,839,676.87C839,648.49,834.64,623.72,814.42,623.72Z"/><path class="cls-1" d="M991.2,757.18V645.92c0-11.29-5-22.2-23.64-22.2a55.82,55.82,0,0,0-19.35,3.14V757.18H902.09V606.87C918,599.8,940.5,595,968.69,595c50.76,0,68.63,21.45,68.63,50.44v111.7Z"/><path class="cls-1" d="M1123.24,824.21c-24.51,0-46.47-4.76-59.39-11.83l11.79-29.79c9.82,5.32,24.22,9.47,39.54,9.47,24.21,0,33.09-11.5,33.09-29.83v-9c-5.42,3.06-14.71,5-28,5-38,0-65.4-29.17-65.4-76.8,0-53,27.08-86.47,81.83-86.47,24.17,0,44.94,5.07,56.25,11.83V758.31C1193,803.61,1164.13,824.21,1123.24,824.21Zm25-199.94c-3.7-1.68-8.34-2.74-14.71-2.74-23.63,0-33.41,19.35-33.41,57.36,0,36.06,9.49,53.19,32.57,53.19,6.36,0,11.57-1.43,15.55-3.86Z"/><path class="cls-1" d="M1236.22,757.18V553.94h47.87V725h51.58v32.14Z"/><path class="cls-1" d="M1577.59,760.18c-46.17,0-70.3-35.14-70.3-82.7s24.13-82.44,70-82.44c46.4,0,70.72,34.93,70.72,82.44S1623.66,760.18,1577.59,760.18Zm0-136.46c-20.18,0-24.58,24.77-24.58,53.15,0,28.56,4.69,51.89,24.58,51.89,20.5,0,24.53-23.33,24.53-51.89C1602.12,648.49,1598.09,623.72,1577.59,623.72Z"/><path class="cls-1" d="M1760.63,757.18V645.92c0-11.29-5.14-22.2-23.64-22.2a55.34,55.34,0,0,0-19.53,3.14V757.18h-46.15V606.87c15.82-7.07,38.3-11.83,66.89-11.83,50.43,0,68.29,21.45,68.29,50.44v111.7Z"/><path class="cls-1" d="M1892.63,824.21c-24.74,0-46.64-4.76-59.3-11.83l11.81-29.79c9.48,5.32,24.21,9.47,39.19,9.47,24.18,0,33.16-11.5,33.16-29.83v-9c-5.44,3.06-14.7,5-28,5-38,0-65.49-29.17-65.49-76.8,0-53,27.15-86.47,81.92-86.47,24.48,0,44.94,5.07,56.16,11.83V758.31C1962.13,803.61,1933.35,824.21,1892.63,824.21Zm24.86-199.94a35,35,0,0,0-14.7-2.74c-23.66,0-33.14,19.35-33.14,57.36,0,36.06,9.19,53.19,32.29,53.19,6.36,0,11.52-1.43,15.55-3.86Z"/><path class="cls-1" d="M2279.39,756.85c-.36-2.61-15.65-152-15.65-152-1.2-12.71-1.49-23.9-1.49-23.9h-.63s-2,11.19-5.59,23.9c0,0-41.9,148.49-43.05,152h-18c-.87-2.92-42.54-152.29-42.54-152.29-3.2-12.11-5.56-23.61-5.56-23.61h-.59s-.31,11.5-1.48,23.61c0,0-15.63,149.37-15.91,152.29h-23.33l24.2-203.07h28.59l40.72,146.7a218,218,0,0,1,5.35,23h.59a202,202,0,0,1,5.3-22.74l41.86-147h28.65l24.23,203.07Z"/><path class="cls-1" d="M2368.75,759.82c-23.05,0-36.6-4.4-47.25-11.19l7.09-18.93c7.66,4.77,19.24,9.48,35.43,9.48,23.3,0,38.05-15.06,38.05-38.11,0-18-10-28.89-35.39-39-33.94-13.57-43.06-34.5-43.06-54.29,0-30.73,21.8-57,57.27-57,18.57,0,32.66,4.72,41.52,10.94L2416,578.88a61.94,61.94,0,0,0-32.15-9.43c-21.56,0-33.65,14.14-33.65,35.68,0,21,15.36,29.84,33.91,37.21,40.2,15.65,46,39.26,46,57.29C2430.1,735,2404.45,759.82,2368.75,759.82Z"/><path class="cls-1" d="M2457.86,756.85V553.78H2485V756.85Z"/><path class="cls-1" d="M2598.34,759.82c-47.28,0-85.27-34.24-85.27-106,0-67.59,38.94-103,85.27-103,22.13,0,37.71,4.48,47.51,10.61l-8,16.85c-6.84-4.15-18.62-8.25-36.63-8.25-37.49,0-60.21,27.17-60.21,86.16,0,55.19,25.1,84.77,57,84.77,13.85,0,21.21-2.4,25.33-4.76V660.09h-34.52V642.93h60.8v105.7C2637.3,755.68,2623.67,759.82,2598.34,759.82Z"/><path class="cls-1" d="M2809.33,572.09V756.85h-27.17V572.09h-40.49V553.78h108.08v18.31Z"/><path class="cls-1" d="M2905.28,759.82c-41.34,0-60.57-18-60.57-46.92,0-42.21,39.59-54.6,88.87-59.65v-9.71c0-24.51-14.78-31.62-35.14-31.62-15.34,0-29.53,5.63-38.37,10l-6.24-15.32c9.21-5,26.93-11.79,48.76-11.79,29.53,0,55.48,12.68,55.48,51.62V748.63C2946,755.42,2927.36,759.82,2905.28,759.82Zm28.3-93.27c-40.16,5-64.1,13.59-64.1,45.76,0,23,14.19,32.45,37.82,32.45,10,0,19.8-1.76,26.28-5.3Z"/><path class="cls-1" d="M3169.44,759.82c-41.36,0-60.55-18-60.55-46.92,0-42.21,39.55-54.6,88.83-59.65v-9.71c0-24.51-14.73-31.62-35.12-31.62-15.36,0-29.53,5.63-38.39,10L3118,606.64c9.14-5,26.89-11.79,48.66-11.79,29.53,0,55.53,12.68,55.53,51.62V748.63C3210.11,755.42,3191.52,759.82,3169.44,759.82Zm28.28-93.27c-40.14,5-64.08,13.59-64.08,45.76,0,23,14.18,32.45,37.82,32.45,10,0,19.75-1.76,26.26-5.3Z"/><path class="cls-1" d="M3285.38,614V756.85h-25.94V614h-18.36V597.78h18.36V575.34c0-31.3,18.83-51.66,53.66-50.2v16.52c-15.67.92-27.72,8.28-27.72,30.76v25.36h27.72V614Z"/><path class="cls-1" d="M3386.61,760.11c-39.86,0-56.38-20-56.38-52V597.78h25.95V709.06c0,18.62,10,32.81,31.91,32.81,12.37,0,21.23-2.13,28.59-6.56V597.78h26V747.43C3430.89,754.24,3412.29,760.11,3386.61,760.11Z"/><polygon class="cls-1" points="3039.23 672.18 3099.49 597.78 3072.3 597.78 3015.66 671.57 3015.05 671.57 3015.05 553.14 2989.62 553.14 2989.62 756.85 3015.05 756.85 3015.05 674.84 3015.66 674.84 3076.44 756.85 3105.95 756.85 3039.23 672.18"/><rect class="cls-1" x="3474.58" y="553.14" width="25.92" height="203.71"/><path class="cls-1" d="M3495,387.87a214.43,214.43,0,0,0-17.77-24.61,221.34,221.34,0,0,0-14.87-16.68l-3.37-3.26-3.68,6.77c-1.15,2.14-2,3.82-2.69,5.07-3.65,7-4.4,9.54-4.4,11.17,0,1.79.94,3.51,3.27,5.63a18.06,18.06,0,0,0-4,5.33l-9,16.16a12.87,12.87,0,0,0-1.53,3.73,15.85,15.85,0,0,0-.19,3,9.17,9.17,0,0,0,2.95,6.46c-.78.17-1.51.31-2.15.43a42.09,42.09,0,0,1-4.85.52c-.21-7.55-1.18-13.48-2.88-18.08-3.51-9.62-9.94-11.67-14.58-11.67-6.6,0-12,3.82-16,11.36a41,41,0,0,0-4.73,19.33c0,8.15,2.85,14.18,8.46,17.91,3.42,2.21,7.85,3.6,13.43,4.19-2.76,3.77-5.11,6.65-6.9,8.65A61.54,61.54,0,0,1,3395,451.71a37.23,37.23,0,0,1-19.09,5.23,39.31,39.31,0,0,1-9.19-1.22c-3.58-.88-7.07-1.7-10.63-2.55l-2.76-.66-4.41,9.38,3.73,1.32c3.84,1.32,7.73,2.71,11.74,4.15A127.05,127.05,0,0,0,3376.8,471a60.14,60.14,0,0,0,13.06,1.48c11.87,0,22.39-6.15,31.22-18.31a59.43,59.43,0,0,0,10.77-23.4,44.94,44.94,0,0,0,14.71-2.43,108.41,108.41,0,0,0,14-7.07,148.12,148.12,0,0,0,14.3,7.78c9.71,4.62,13.39,5.14,15.34,5.14,5.75,0,9.13-6.86,10.21-9.1a30.35,30.35,0,0,0,3.65-13.53C3504.06,405.66,3501.09,397.93,3495,387.87Zm-8.23,23.89a25.35,25.35,0,0,1-3.65-1.41c-2.17-1.06-4.34-2.19-6.43-3.3a20.63,20.63,0,0,0,2.26-3.75c.33-.73.61-1.46.85-2.16,1,1.22,1.93,2.4,2.78,3.51A29.08,29.08,0,0,1,3486.81,411.76ZM3455.42,388a8.82,8.82,0,0,1,5.59-2.07c2,0,2.75.64,3.2,1.25a7.67,7.67,0,0,1,1,4.29,5.74,5.74,0,0,1-1.46,3.37,17.73,17.73,0,0,1-3.26,3c-6.66-4-7.3-5.82-7.3-5.82C3453.16,391.05,3453.4,389.56,3455.42,388ZM3419,407.83c-3.63-.33-5.56-1.06-6.57-1.65a4.13,4.13,0,0,1-2.29-3.91,2.07,2.07,0,0,1,.71-1.7,2.75,2.75,0,0,1,2.05-.78,4,4,0,0,1,3.18,1.67A18.62,18.62,0,0,1,3419,407.83Z"/><polygon class="cls-1" points="3139.08 459.75 3153.74 467.55 3160.58 454.11 3145.73 446.29 3139.08 459.75"/><polygon class="cls-1" points="3159.68 451.14 3174.36 459.11 3181.39 445.77 3166.47 437.9 3159.68 451.14"/><path class="cls-1" d="M3215.77,342.31l1.2-3.2a39.11,39.11,0,0,0,1.89-8.63,74,74,0,0,0,.77-10.41v-2.36l-5.58-2.26c-1.91-.76-3.84-1.56-5.61-2.31-3.35-1.51-3.8-3.4-3.8-4.86v-1.74l-6.43-4.83-1.72,4.24a60.29,60.29,0,0,0-3.46,11.57,65.59,65.59,0,0,0-1.16,12.65v2.2l5,2.47,9.92,72.73h-21.45v-3c0-11.5-.82-19.61-2.61-24.75-1.23-3.55-4-8.2-8.67-14.21l-3.54-4.57L3160,383.51l1.56,1.74c5.28,5.89,7.21,9,7.89,10.56,1.23,2.78,1.94,6.74,2.17,11.76h-31.51c-.23-7.52-1.2-13.48-2.92-18.1-3.58-9.62-9.9-11.67-14.64-11.67-6.52,0-11.9,3.82-15.9,11.36a40.53,40.53,0,0,0-4.79,19.33c0,8.15,2.83,14.18,8.49,17.91,3.42,2.21,7.85,3.6,13.45,4.19-2.85,3.73-5.13,6.65-6.92,8.65a63.15,63.15,0,0,1-14.52,12.47,37.64,37.64,0,0,1-19.11,5.23,39,39,0,0,1-9.15-1.22l-10.65-2.55-2.81-.66-4.43,9.38,3.73,1.32c3.91,1.32,7.8,2.71,11.78,4.15,5,1.69,9.17,2.9,12.4,3.63a60.46,60.46,0,0,0,13.08,1.48c11.85,0,22.39-6.15,31.22-18.31a59.74,59.74,0,0,0,10.77-23.4h84.32V409.05l-9.87-67.44Zm-89.48,65.52a16.18,16.18,0,0,1-6.56-1.65,4.08,4.08,0,0,1-2.31-3.91,2.07,2.07,0,0,1,.76-1.7,2.71,2.71,0,0,1,2-.78,3.79,3.79,0,0,1,3.18,1.7C3124.19,402.41,3125.22,404.22,3126.29,407.83Z"/><path class="cls-1" d="M2923.85,398.59a55.91,55.91,0,0,0-10-10.49c-4.39-3.32-8.86-5-13.37-5-6.29,0-11.73,2.76-16.19,8.16a43.32,43.32,0,0,0-6.74,12.09l-1.06,2.71,9.22,5.89,2-2.36a23,23,0,0,1,4.55-4.45,6.41,6.41,0,0,1,3.7-1.25,11.29,11.29,0,0,1,7,2.87c.17.12.64.55,1.82,1.68a115.05,115.05,0,0,0-17.51,3.37c-7.43,2.28-13,5.84-16.59,10.65s-5.59,11.67-5.59,20.36c0,1.41.42,4.34,3.39,15.23,1.09,3.91,3.09,11,6.41,22.17q2.31,7.74,4.62,15.44L2883,507.3l3.23-11.76a73.67,73.67,0,0,0,1.86-7.84,42.11,42.11,0,0,0,.54-7,51.14,51.14,0,0,0-2.26-14.1c-1.39-4.73-2.83-9.42-4.13-14.07a42.48,42.48,0,0,1-1.91-12c0-2.59,4.22-5.11,11.51-7a104,104,0,0,1,25.35-2.75h14.33V410.09l-.54-.9C2928,404.41,2925.57,400.83,2923.85,398.59Z"/><path class="cls-1" d="M2826.47,376.48l-3-5.06L2813,388.79l1.67,1.93a35.68,35.68,0,0,1,5.05,7.09,17.88,17.88,0,0,1,2.42,8.27,1.77,1.77,0,0,1-.28,1.14,1.32,1.32,0,0,1-.52.07c-3.48,0-6-1-7.82-3.19-1.23-1.55-3.09-4.76-4.53-11.35l-2.92-18-9.35,14.42.26,1.42c.4,2.07.68,4,.89,5.65a41.35,41.35,0,0,1,.31,5c0,2.73-1,3.74-1.75,4.31-1.22.89-4,2-10.08,2h-7.66c-.17-8.25-.92-14.78-2.33-20a61.9,61.9,0,0,0-6.56-14.28l-3.65-6.16-10.91,27.55,1.3,1.61a48.47,48.47,0,0,1,6.9,11.71,44,44,0,0,1,3.06,16.31c0,7.75-4.85,13.76-14.91,18.29-8.58,3.91-18.57,5.89-29.53,5.89-9.13,0-16.05-1.79-20.74-5.3-4.41-3.26-6.62-8.06-6.62-14.62a50.06,50.06,0,0,1,2-13.19c1.28-4.93,4-11.79,8.11-20.41l1.53-3.25-10-4.62-1.5,3.15c-3.47,7.45-5.68,12.4-7,15.63a127,127,0,0,0-5.3,16.9,74.94,74.94,0,0,0-2,16.92c0,11,4,19.37,12,24.79,7,4.71,17,7.12,29.7,7.12,13.88,0,25.66-2.78,35-8.18a42.47,42.47,0,0,0,21.32-32.71h7.76c5.89,0,10.37-.64,13.66-1.91a22.28,22.28,0,0,0,5.66-3.54,32.57,32.57,0,0,0,7,3.68,30.65,30.65,0,0,0,10.8,1.77h10.65V405c0-7.84-.69-13.76-2.19-18.1C2831.2,384.85,2829.48,381.57,2826.47,376.48Z"/><path class="cls-1" d="M2643.12,359c-1.51-12.54-2.74-22-3.68-29l-1.53-11.36-5.12,10.28c-1.39,2.8-2.89,5.75-4.4,8.93s-3,6.22-4.17,8.93l-.4.9.11,1c1,7.94,2,15.74,2.83,23.19,1.44,13.05,2.57,24.84,3.51,36s1.53,20.26,1.53,26.6c0,.74-.11,2.1-.23,4.08v.43c-.14,2.28-.33,4.33-.52,6.08l-.23,2.26,6.73,3.86,1.73-3.08a100.86,100.86,0,0,0,6.12-12.28,44.07,44.07,0,0,0,2.83-15.6c0-6.22-.52-15.42-1.6-28C2645.76,382.26,2644.53,371.09,2643.12,359Z"/><path class="cls-1" d="M2642.08,303.24q-5.73,0-13.69-4.57c-5.4-3.07-8-5.47-8-7.26,0-1.39,1.25-2.64,3.72-3.7a18.74,18.74,0,0,1,7.5-1.58c4.08,0,7.94,1.65,11.55,4.95a50.5,50.5,0,0,0,2.92-5.75,14,14,0,0,0,1-5.05,8.38,8.38,0,0,0-2.52-6.26,8,8,0,0,0-5.91-2.39c-5.21,0-11.15,3.63-17.91,11-6.09,6.55-9.13,11.72-9.13,15.37,0,2.45,1.21,4.81,3.61,7.07a35.14,35.14,0,0,0,8.06,5.42c-11.45,4.15-17.23,8.91-17.23,14.33l32.1-11.29a57.26,57.26,0,0,0,10.84-5c3.54-2.31,5.35-5,5.35-7.92a38.4,38.4,0,0,1-6.83,2.36A37.35,37.35,0,0,1,2642.08,303.24Z"/><polygon class="cls-1" points="2545.34 432.93 2560.51 441.86 2568.76 426.89 2552.81 418.57 2545.34 432.93"/><path class="cls-1" d="M2577.62,475.58c-20.33,0-36.76-3-48.78-8.95-13.29-6.56-19.7-16-19.7-28.82,0-9.95,4.41-18.39,13.53-25.83,7.51-6.16,18.24-11.51,31.95-15.82a268.6,268.6,0,0,1,34.27-8l2.38-.45,4.95-23.33h-4.36a72.11,72.11,0,0,0-8.58.76,70.41,70.41,0,0,1-7.78.63,112.28,112.28,0,0,1-15.36-1.23c-13.46-1.9-22.18-2.82-26.63-2.82-12.33,0-21.35,2.82-26.8,8.39-2.71,2.68-5.37,7.89-8.13,15.9l-2,5.85,6.08-1.25c5.61-1.15,10.16-2,13.53-2.57a92.88,92.88,0,0,1,13.38-1.13h.57c-4.24,3-7.17,5.09-8.72,6.32a75.21,75.21,0,0,0-17.73,20.12,62.73,62.73,0,0,0-8.08,31.68c0,13.9,3.49,25.35,10.44,34,6.11,7.54,15.09,13,26.8,16.42,9.57,2.74,21.54,4.1,35.72,4.1h6.72l25.27-18.22-3-5.7Z"/><polygon class="cls-1" points="2246.27 322.68 2230.84 313.89 2223.86 328.9 2239.02 337.74 2246.27 322.68"/><path class="cls-1" d="M2235.91,348.63c-7.12,0-12.85,4.71-17,14-3.35,7.55-5.05,16.45-5.05,26.4,0,6.48,2.1,11.59,6.23,15.13,3.55,3.11,8.08,4.67,13.52,4.67a31.15,31.15,0,0,0,8.56-1.35c1.08-.28,2.4-.71,4-1.25a75.15,75.15,0,0,1,1,9h-36.72c-.35-6.72-1.06-14.92-2-24.39-1-9.05-2.4-20.86-4.33-35-1-6.79-1.63-11.69-2.08-15l3.75,1.27.9-3.77c.94-4.05,1.57-7.26,1.93-9.57a82.85,82.85,0,0,0,.49-11V315.7l-1.81-1c-1.23-.71-2.76-1.51-4.48-2.4-2.4-1.27-4.6-2.36-6.69-3.35a2.19,2.19,0,0,1-1.32-1.13,13.74,13.74,0,0,1-1-4.6l-.33-3.18h-7.07l-.92,2.08a63.38,63.38,0,0,0-5.49,26.58v2l4.6,2.66,2.85,18.24c2.12,14.35,4,28.12,5.56,40.89,1.93,15.51,2.88,26.75,2.88,33.42,0,4.55-4.3,8.76-12.78,12.51a69.57,69.57,0,0,1-28.07,5.68c-9.14,0-16.28-1.93-21.32-5.75-4.67-3.68-7-9-7-16.35a51.77,51.77,0,0,1,1.67-12.71,96.46,96.46,0,0,1,4.41-12.56c1.46-3.3,3.32-7.3,5.77-12.14l1.44-2.85-9-5.79-1.73,3.48c-3.27,6.39-5.93,12.12-8,17.11a119.88,119.88,0,0,0-6.2,18.34,78.33,78.33,0,0,0-2.47,19.28c0,11.78,4.17,20.78,12.42,26.81,7.21,5.33,17.39,8,30.21,8,10.91,0,20.08-1.13,27.31-3.25,8.86-2.69,15.77-7.24,20.43-13.58a37,37,0,0,0,5.66-11.93h53.76V410c0-14.9-1.8-28.07-5.38-39.24C2252.33,356.08,2245.26,348.63,2235.91,348.63Zm-1.77,34.45c-3.63,0-4.79-1.13-4.79-4.69a6,6,0,0,1,1-3.46c.61-.85,1-.85,1.37-.85.54,0,2.12.38,4.73,3.77a29.87,29.87,0,0,1,2.55,3.91c-.5.24-1,.45-1.46.62A10.36,10.36,0,0,1,2234.14,383.08Z"/><polygon class="cls-1" points="2425.88 335.05 2410.32 326.31 2403.25 341.06 2418.55 349.88 2425.88 335.05"/><path class="cls-1" d="M2418.2,368.71l-3.61-5-10.75,24.42,1.44,1.67c5.54,6.55,7.57,10,8.27,11.83,1.32,3.21,2.15,7.78,2.34,13.65h-34.46a143.26,143.26,0,0,0-17.93-27.55A189.24,189.24,0,0,0,2338,362.46l-7.63-6.15a26,26,0,0,1-4.36-4.24,35.29,35.29,0,0,1,6.9-4,188.94,188.94,0,0,1,18.71-7.59l22-8V306.87l-31.49,13.38c-12.68,5.24-21.44,11.06-26.79,17.77-5.75,7.36-8.65,17.44-8.65,30,0,3.16,2.16,6.5,7.11,11.05l13.67,11.36,3.33-3.46a149.71,149.71,0,0,1,20,15.46,87.11,87.11,0,0,1,11,12.89h-71.83c-.68,0-1.74-1-2.73-2.66s-3-6.7-4.36-21.78c-.66-27.1-1.3-43.69-1.94-50.76a155,155,0,0,0-5.3-30.24l-2.36-7.82-17,29.38,1.91,1.89a24.72,24.72,0,0,1,4.95,7.54,38.94,38.94,0,0,1,2.47,9.52c.66,4.15,1.16,10.28,1.56,18.22q.63,12.23,1.2,23.94A240.51,240.51,0,0,0,2271,417c1.27,7.07,3.14,12.35,5.66,16.12a15.67,15.67,0,0,0,13.22,7.16h139.94v-28.6c0-12.78-.87-21.76-2.71-27.34C2425.9,380.44,2423,375.33,2418.2,368.71Z"/><polygon class="cls-1" points="2404.22 344.34 2388.74 335.67 2381.78 350.61 2397.03 359.26 2404.22 344.34"/><path class="cls-1" d="M3350.12,475c-13.08,0-23.89-.69-32.19-2-10.13-1.7-17.84-4.55-22.88-8.49-5.52-4.33-8.25-10.13-8.25-17.79,0-7.4,3.42-14.26,10.44-20.91,5.65-5.42,14-10.81,24.79-16,5.47-2.59,14.5-6.44,26.94-11.41l1.65-.66,5.8-22-5.8,1.46a147.39,147.39,0,0,0-20.36,6.67,166.66,166.66,0,0,0-17,8.1,66,66,0,0,1-17.72-5.53c-5.33-2.62-8.44-5.38-8.44-7.57,0-2.5,4.29-4.62,6.86-5.63a79.73,79.73,0,0,1,18.6-4.31,133.15,133.15,0,0,1,17.69-1.18h10l-7.78-6.27a75.7,75.7,0,0,0-11.71-8.06,29.8,29.8,0,0,0-14.12-3.91c-9.82,0-18.21,4-25.05,12.06-5.87,6.91-8.84,14.17-8.84,21.54,0,8.28,2.83,15.2,8.44,20.65a45.24,45.24,0,0,0,8.7,6c-2.62,2.74-4.5,4.85-5.82,6.48a56.8,56.8,0,0,0-8.61,15.11,62.76,62.76,0,0,0-3.63,21.91c0,13.67,4.53,24.33,13.44,31.73,6.93,5.75,16.75,9.64,29.25,11.52,7,1.06,17,1.63,29.64,1.63h1.06L3370.63,481v-6.32l-12.09.29C3355.71,475,3353,475,3350.12,475Z"/><polygon class="cls-1" points="3301.32 325.01 3283.47 315.63 3275.39 331.85 3293.09 341.23 3301.32 325.01"/><polygon class="cls-1" points="3317.91 331.07 3326.39 314.97 3308.43 305.48 3300.23 321.43 3317.91 331.07"/><polygon class="cls-1" points="3304.55 302.15 3286.56 292.68 3278.41 308.66 3296.06 318.27 3304.55 302.15"/><path class="cls-1" d="M3054.88,475c-13.08,0-23.92-.69-32.22-2-10.16-1.7-17.82-4.55-22.88-8.49-5.52-4.33-8.23-10.13-8.23-17.79,0-7.4,3.42-14.26,10.4-20.91,5.65-5.42,14-10.81,24.84-16,5.44-2.62,14.49-6.44,26.91-11.41l1.67-.66,5.75-22-5.77,1.46a154.92,154.92,0,0,0-20.36,6.67,169,169,0,0,0-17,8.1,65.14,65.14,0,0,1-17.65-5.53c-5.38-2.57-8.44-5.38-8.44-7.57,0-2.5,4.24-4.62,6.81-5.63a80,80,0,0,1,18.6-4.31,133.49,133.49,0,0,1,17.72-1.18h10l-7.8-6.27a72.93,72.93,0,0,0-11.69-8.06,29.71,29.71,0,0,0-14.12-3.91c-9.75,0-18.21,4-25,12.06-5.92,6.93-8.89,14.17-8.89,21.54a27.69,27.69,0,0,0,8.49,20.65,43.57,43.57,0,0,0,8.72,6,81.09,81.09,0,0,0-5.87,6.48,54.87,54.87,0,0,0-8.58,15.11,62.23,62.23,0,0,0-3.65,21.91c0,13.67,4.52,24.33,13.45,31.73,6.95,5.75,16.74,9.64,29.2,11.52,7.07,1.06,17,1.63,29.69,1.63h1.07L3075.38,481v-6.32l-12.13.29C3060.44,475,3057.63,475,3054.88,475Z"/><polygon class="cls-1" points="3006.07 325.01 2988.21 315.63 2980.12 331.85 2997.78 341.23 3006.07 325.01"/><polygon class="cls-1" points="3022.61 331.07 3031.15 314.97 3013.16 305.48 3004.96 321.43 3022.61 331.07"/><polygon class="cls-1" points="3009.3 302.15 2991.32 292.68 2983.14 308.66 3000.81 318.27 3009.3 302.15"/><path class="cls-1" d="M2474.35,423.12a7.49,7.49,0,1,0,7.52,7.47A7.5,7.5,0,0,0,2474.35,423.12Z"/><path class="cls-1" d="M2614.39,423.12a7.49,7.49,0,1,0,7.52,7.47A7.51,7.51,0,0,0,2614.39,423.12Z"/><path class="cls-1" d="M2666.17,423.12a7.49,7.49,0,1,0,7.51,7.47A7.42,7.42,0,0,0,2666.17,423.12Z"/><path class="cls-1" d="M2849.75,422.72a7.49,7.49,0,1,0,7.47,7.45A7.45,7.45,0,0,0,2849.75,422.72Z"/></svg>