<svg id="Layer_1" data-name="Layer 1" xmlns="http://www.w3.org/2000/svg" viewBox="0 0 1446.01 1200"><title>JCB</title><path d="M252.94,773q376.73,0,753.44,0c8.67,0,17.35-.24,26-.64,76.48-3.51,137.26-66.67,137.29-142.91q.1-281.2,0-562.42V55.79H383.38C303,55.79,238.67,120,238.66,200.19q0,280.72,0,561.46V773ZM862.82,514.41h11.86c49.2,0,98.41.43,147.6-.32a105.41,105.41,0,0,0,35.54-6.93c19.62-7.56,31.11-22.91,31.26-44.41.15-21.33-11.76-35.49-30.76-43.67-7.57-3.25-15.78-5-24.16-7.6,3.2-1,6.45-2,9.67-3.15,20.61-7.09,32.88-23.25,33.23-43.73s-11.13-37.35-32.42-43.88a138.48,138.48,0,0,0-37.85-5.78c-43.73-.68-87.47-.26-131.21-.26H864.22c-.25-3.16-.66-5.9-.66-8.64,0-33.77-.18-67.54,0-101.3.28-52.76,45-99.21,97.81-100.17,50.15-.91,100.33-.21,150.5-.19,1.54,0,3.09.33,5.7.62v13.53c0,164.65-1,329.31.51,494,.56,61.67-43.47,112.6-107.38,112.24-47.59-.28-95.19-.05-142.78-.09a31.24,31.24,0,0,1-5.11-.9ZM971.7,395.13c-18.83.93-37.75.24-57.32.24V346.71c19.81,0,39.33-.94,58.71.33,13.23.87,21.31,12,20.94,24.56C993.67,384,984.83,394.48,971.7,395.13Zm29.44,61.16c-.72,13.58-10.81,23.95-24.94,24.27-20.19.46-40.41.12-61.73.12V427.24c21.89,0,43.64-.93,65.25.35C993,428.37,1001.89,442.12,1001.14,456.29ZM577.69,201.94c2.85-57.13,47.85-97.58,105.18-97.59H831.41c.21,3.9.56,7.26.56,10.63q0,251.76,0,503.54c0,60.23-43.41,105.49-103.61,106.65-48.53.93-97.1.19-145.65.16-1.56,0-3.12-.3-5.69-.56V489.65c.65-.2,1.46-.73,1.77-.51,40.77,28.32,87.23,32.65,134.63,30.2,26.5-1.37,52.82-6.31,79.21-9.77,3.45-.45,6.8-1.64,10.58-2.58V463.12c-4.1,1.73-7.82,3.27-11.5,4.88-30.8,13.44-62.55,21.25-96.46,16.59-36.5-5-58.91-30.54-59.42-67.73-.53-39.09,20.44-65.35,57.38-71.43C727,339.88,759,347,789.89,360.36c4.07,1.76,8.13,3.54,13.79,6,0-14.18.22-27.15-.25-40.1-.06-1.85-3.16-4.73-5.29-5.21-57.34-12.91-115-18.28-172.56-2.42-16.69,4.6-32.26,13.29-48.92,20.35,0-1.43,0-4.15,0-6.88C576.87,288.72,575.53,245.24,577.69,201.94Zm-286.63,3c.69-56.45,47.22-100.49,103.56-100.55q73.8-.09,147.59.07a24,24,0,0,1,3.25.67V113q0,252.25-.05,504.51c0,54.4-35.3,96-88.52,105.26a39.06,39.06,0,0,1-6.7.82c-52.71,0-105.42,0-158.94,0V507.79c17.25,2.85,34.21,6.4,51.35,8.33,42.3,4.76,84.67,7.12,126-6.51,37.78-12.47,55.59-37.57,55.63-77.26,0-38.87,0-77.73,0-117.29H435.15V426.58c0,42.14-21.84,62.46-64.22,59.39-26.25-1.91-51.09-9.3-74.62-20.89-2.6-1.28-5.32-5.52-5.33-8.39C290.71,372.76,290,288.83,291.06,204.92Z"/><path d="M512.63,927c-.62,12.44-1.34,22.07-1.52,31.7-.19,10-2.54,21,10.48,26.36,18-10.25,4.76-28.91,11.46-43.8,6.16,8.81,14.34,12.24,24,10,3.05-.71,5.54-3.8,8.29-5.8-2-2.66-3.42-6.23-6.05-7.81-7.86-4.73-16.18-8.68-25.92-13.77,18-2.34,20.74-5.54,20.77-22,0-8,.18-16.07-.07-24.09s-5.82-14-13.78-14c-23.77-.21-47.54,0-71.31-.14-6.7,0-9,2.91-8.84,9.4.32,10.91.09,21.84.09,32.76,0,15.29,0,15.28,14.08,17.84.42.08.7.94,2.69,3.77-9.1,3.42-17.67,6.21-25.83,9.92-3.05,1.38-5.13,4.87-7.65,7.4,2.36,2.25,4.45,6,7.13,6.48,8.83,1.59,17.09.25,23.14-7.81,1.34-1.79,4.72-2,7.15-3,.84,2.94,3.32,7.1,2.21,8.6a108.19,108.19,0,0,1-15,16.21c-4.22,3.78-9.35,6.52-14.86,10.26L464.09,985c31.75-21.23,39.79-36.32,29.7-55.22C501.31,920.51,505.59,920.35,512.63,927Zm9.62-50.59c.48-.27,1.25,0,1.88,0,2.22,0,4.73-.64,6.58.19s3.28,3.16,4.88,4.82c-3,2-5.89,5.69-8.86,5.71-4.75,0-12.67,4.13-13.2-5.3C513.43,880.14,519.16,878.14,522.25,876.4Zm-8,24.53c2.64-1.74,6.42-1.76,9.81-2.5,3.47.73,7.42.59,9.83,2.45,1.33,1,.07,5.4,0,8.26-6.67-.22-13.35-.38-20-1C513.69,908.14,513,901.75,514.24,900.93Zm-35.6-24.32c1.31-.89,3.69-.17,5.59-.17v.13c2.22,0,4.95-.8,6.53.21,2,1.24,3,4,4.4,6.07-4.09,1.32-8.16,3.53-12.28,3.64-3,.08-6-2.65-9-4.13C475.44,880.39,476.66,877.94,478.64,876.61Zm3.51,33c-2.6.24-5.49-2.53-8.25-3.95,1.41-2.06,2.42-4.78,4.37-6,1.6-1,4.31-.21,6.54-.21v-.24c2.22.11,4.87-.49,6.53.53s2.59,3.69,3.83,5.63C490.84,906.93,486.58,909.23,482.15,909.64Z"/><path d="M413.62,910.57c5.27-.55,10.21-4.31,17.89-7.83-6.82-5.06-11-10.74-14.72-10.46-12.64,1-11.52-6.7-11.23-14.61.09-2.25.7-4.83-.17-6.68-1.26-2.67-3.65-4.8-5.55-7.16-2.38,2.24-5.88,4.1-6.84,6.84-1.19,3.44-.63,7.65-.23,11.47.79,7.6-2.17,9.62-9.84,9.83-9.05.26-12.44-2.46-11.2-11.35.43-3.16.83-6.69-.17-9.56s-3.76-4.83-5.75-7.2c-2.46,2.24-6.61,4.21-7,6.79-1,6.24-.34,12.77-.34,19.6-19.83,3.83-20.28,3.5-20.39-13.86,0-1.6-.05-3.21,0-4.82.06-5-2.21-8.77-7.29-7.47-2.53.65-5.52,4.71-5.91,7.55-.88,6.47-.28,13.14-.28,20.62-10.72-1.88-20.95,1-21.09,9.08-.18,9.76,11,10.16,20.23,9.94.3,4.27.78,8,.8,11.77.09,18-.15,36,.28,54,.07,2.68,2.56,6.49,4.92,7.54,1.74.78,7.22-1.81,7.4-3.33,1.05-8.68,7-7.65,12.8-7.64,19.61,0,39.22.09,58.83,0,7.29-.05,11.14-5.05,7.46-10-1.64-2.2-6-3.29-9.12-3.34q-29.9-.45-59.79-.07c-6.32.08-9.57-1.54-9.31-8.61.41-10.91.44-21.87,0-32.78-.33-8.59,5.05-7.91,10.75-8s10.22.31,9.77,8a238.24,238.24,0,0,0-.05,25.07c.37,7.38,6,9.88,12,5.47,7.88-5.79,15.58-5.65,23.42-.18,6.3,4.39,11.31,2.24,11.65-5.38.36-8,.2-16.08.09-24.11C405.48,914.14,407,911.27,413.62,910.57ZM382,932.83c-9.84.21-10.52-4.21-10.8-12-.31-8.77,2.88-11.7,11.08-9.95,8.57-1.82,11,1.84,11,10.25S391.12,932.64,382,932.83Z"/><path d="M336.77,1090c-5.8-2.15-10.35-8-15-12.68-.61-.62,1.27-4.7,2.88-6.25s5.85-1.54,6.29-3c.91-3,1.24-8.33-.38-9.4-2.45-1.63-6.86-1-10.27-.33-5.1.93-10,3.32-15.11,3.89-9.52,1-6.06-6.63-6.83-11.31-1.32-8.05-8-4.84-12.38-5.55-5.11-.82-8.05,2.6-7.35,7.56,1.16,8.31-2.92,10.18-10,9.5-2.23-.21-5-.76-6.63.27-2.51,1.61-5.81,4.41-5.85,6.75s3.12,5.67,5.67,6.8,6.52-.37,9.46.55c2.75.86,7.12,3.49,7,5.18-.21,4.78-1,12.42-3.92,13.75-19.07,8.68-29.67,28.77-24.16,49.28a8.2,8.2,0,0,0,4.87,4.87c14.33,3.91,26.88-4.73,40.48-6.33,1-.12,2.17-2.29,2.6-3.7a62.56,62.56,0,0,1,16.57-26.59c3.26-3.2,5.65-7.28,8.61-11.19l11,4.15c3.17,25,.52,28.92-23.18,36.31-2,.62-4.31,4-4.33,6.19s2.63,6.58,3.94,6.52a118.2,118.2,0,0,0,21.92-3c10.37-2.53,15.14-10.47,19.91-19.72C359.75,1118.81,351.36,1095.45,336.77,1090Zm-57.92,38.52c-1.14,3.75-6.28,6.51-10.07,9-.81.54-5.1-1.75-5.15-2.86-.2-4.5-.68-9.8,1.4-13.4,2.69-4.66,7.72-8,11.74-11.88l2.52.87C279.29,1116.42,280.54,1122.92,278.85,1128.53Zm15.72-8-3.94-1.35c.52-6.56-.18-13.63,2.19-19.43.91-2.22,8.86-1.56,13.6-2.22l1.35,3Zm15.2-34.69c-2.29.8-5.07.2-7.63.2v.09c-2.25,0-4.77.64-6.67-.17s-4.48-3-4.6-4.77,2.11-5.31,3.66-5.52a54.91,54.91,0,0,1,15.31.08c1.56.22,3.51,3.51,3.69,5.53C313.66,1082.73,311.45,1085.24,309.77,1085.82Z"/><path d="M801.83,953.13c4.73-8,5.73-18.29,9-29.92,3.29,4.75,6.12,7.8,7.74,11.4,3.29,7.33,7.78,6.6,12.81,2.47,2.34-1.91,4.07-4.55,6.74-7.64-16.63-11.21-21.67-28.91-29.75-44.71a25.3,25.3,0,0,0-6-7.34,5.77,5.77,0,0,0-5.11-.53c-7,3.38-8.43,10.34-3.89,17.21,1,1.57,2.46,3.48,2.33,5.12-.75,9.94,3.45,20.56-4.36,29.66-1.6,1.86-1.55,5.48-1.56,8.29-.05,11.85-9.84,23.35-20.24,23.45-19.77.2-22.47-2.4-22.47-21.68,0-2.58.11-5.16,0-7.72-.62-12.69,4.25-23,13.4-31.54,4.22-3.95,8.76-7.69,12.31-12.19a11,11,0,0,0,1.67-8.73c-.49-1.69-4.63-3.6-6.83-3.29-14.75,2.09-29.41,4.74-44.09,7.29-.36.06-.56,1.06-1.95,3.94l19.55,10.84c-3.89,9.94-9.19,21.24-12.67,33.07-2.43,8.25.8,16.2,3.85,24.59,5.95,16.35,19.77,27.37,36.23,24.13a30.41,30.41,0,0,0,13.25-6C789.09,967.16,797.18,961.05,801.83,953.13Z"/><path d="M868.83,1074.59c-3-5.1-5.62-10.73-9.75-14.74-1.83-1.77-7-.12-10.63,0,.26,6.87.1,13.79.93,20.59.58,4.78,3.84,9.51,3.48,14.07-.42,5.38-5.62,10.84-5,15.76,1.92,14.27-8.23,20.92-16.35,28.41-9.42,8.69-26.24,4.92-27.62-6.12-2.77-22.12-3.15-44.2,16.72-60.45,4.06-3.31,7.45-7.44,11.47-11.52l-8.06-7.11c-6.28,1.25-11,2.72-15.89,3-7.36.48-14.79-.1-22.17.24s-10,5.64-6,11.75c5.08,7.75,11.61,11.53,19.36,5.54-3.06,8.7-4.76,18.4-9.59,26.16-7.68,12.36-6.35,23-.11,35.31,9.92,19.62,30.06,27,50,16.27,5.22-2.8,11.73-6.18,14-11,5.74-12.45,9.41-25.85,14-39,2.73,3.59,4.76,7.83,8.11,10.18,2.84,2,7.21,1.77,10.9,2.52-.09-3.19.87-6.93-.45-9.48C880.73,1094.62,874.73,1084.62,868.83,1074.59Z"/><path d="M1127.08,1090.81c-1.08-4.74-2.06-10.89-5.38-13.46-7.65-5.89-16.19-11.52-25.27-14.44-13.4-4.3-25.41,4.48-38,7.69-8.65,2.21-16.79,6.35-25.37,9-4.45,1.34-9.36,1.19-14,1.72,1.53,4.07,3.63,8,4.48,12.24,1.31,6.52,4.87,6.82,9.75,4.46,4.32-2.09,8.33-4.88,12.77-6.61,9-3.48,17.9-7.56,27.24-9.3,8.38-1.57,17.28-.49,26-.29,9.22.21,19.22,17.25,13.46,24.26-10.66,13-22.1,25.55-41.37,25-8.59-.26-10.52,3.15-6.46,10.49a49.77,49.77,0,0,0,4.9,6.64c6.76-1.49,11.92-2.3,16.87-3.8,7.62-2.31,16.45-3.38,22.34-8,10.5-8.3,22.28-17.16,18.4-34C1126.53,1098.64,1127.92,1094.47,1127.08,1090.81Z"/><path d="M935.5,972.31c1.19.05,3.7-4.9,3.62-7.47-.08-2.92-2-8-3.79-8.26-5.52-.88-12-1.55-16.91.53-19.74,8.36-32.82,6-45.44-8.85,1.59-15.89,13.89-20.86,25.41-26.09,10-4.55,20.72-7.71,30.83-12.11,1.77-.77,3.57-5.15,2.91-7-1.21-3.4-4.23-6.16-6.51-9.2-6.47,3.54-12.13,6.85-18,9.79-8.49,4.25-14.32.52-14.49-9.13-.12-6.11.46-12.29-.34-18.3-.29-2.23-3.49-5.57-5.57-5.74-3.34-.27-9.77,1.57-9.82,2.73-.36,8.46-1.54,17.88,1.62,25.24,3.64,8.48,4.12,14.23-2.85,20.28-3.64,3.16-6.94,6.7-10.45,10-12.49,11.77-10.08,31.7,5.25,39.2C891.73,978.1,914,971.39,935.5,972.31Z"/><path d="M991.33,1138.67c-2-.68-4.44-.35-6.69-.36-14.14,0-28.29.21-42.43-.1-10.34-.23-18.92-9.62-14.12-15.41,6.39-7.71,14-15,22.53-20.18,12.32-7.55,25.87-13.07,39.86-19.93L983.27,1071c-8,5-15.15,9.4-22.19,13.91-6.09,3.91-10.8,2.16-11.26-4.61-.37-5.42.65-11-.32-16.28a38.08,38.08,0,0,0-6-14.43c-.78-1.13-9.31,1.23-9.28,1.69.62,10.26-3.49,20.76,3,30.93,2.25,3.51,1,14-1.25,14.88-17.71,7.27-20.25,21.63-19.64,37.72.31,8.25,6.3,13.24,14.49,13.39,3.82.08,9.21-1.14,11.18.88,6,6.13,13.09,5.21,19.79,4.43,10.09-1.18,20.06-3.62,30-6,1.38-.33,2.78-3.32,2.9-5.16C994.76,1141.16,992.77,1139.16,991.33,1138.67Z"/><path d="M575.72,1077.52c.91-4.5-.63-9.49-1.08-13.4L556.76,1069c.93-6.45,2.11-10.91,2-15.33-.07-2.66-1.73-7.14-3.37-7.48-2.91-.61-7.85.29-9.26,2.38-3,4.46-6.1,10.13-6,15.23.21,8.36-2.57,10.92-10.4,10.27a96,96,0,0,0-16.35.11c-2.2.19-4.25,2.08-6.36,3.2,1,1.84,1.65,4.73,3.15,5.31,5,1.94,10.4,3,15.61,4.48,2.65.75,5.6,1.22,7.66,2.8.79.6-.15,4.08-.92,6-3.15,8-6.67,15.78-9.79,23.75-2.94,7.53-5.74,15.13-8.15,22.84-.68,2.19-.68,6.07.64,7.13a31.74,31.74,0,0,0,11.41,5.55c.74.2,3.36-4.5,4.21-7.22,2.67-8.56,4.55-17.39,7.44-25.86,2.83-8.31,7.61-16.07,9.6-24.52,3.34-14.24,4-15.3,18.73-16.1C569.9,1081.36,575.33,1079.45,575.72,1077.52Z"/><path d="M1055.61,953.92c5.52-3.62,12.37-10.18,12.64-15.74.43-8.79,4.69-17.21,1.07-27-4.25-11.49-10.68-21.41-22.25-22.85-18.45-2.3-36.61.4-54.13,6.29-9.69,3.26-18.9,7.95-29.07,12.32,7.26,10.12,10.73,9.94,20.79,5.18,15.65-7.41,31.16-15.94,49.65-14.49,9.62.75,23.29,9.8,24.66,17.58,2,11.1-5.82,25.84-15.76,29.69-9.71,3.77-19.55,7.24-29.13,11.33-2.33,1-3.86,3.89-5.76,5.92,2.66,1.48,5.57,4.51,7.93,4.13,6.35-1,12.48-3.48,18.68-5.4C1041.91,958.7,1049.72,957.77,1055.61,953.92Z"/><path d="M429.37,1080.87c3.66-.06,7.57-6.58,10.56-10.74.79-1.11-1.6-6.37-2.24-6.32-4.07.34-8.05,1.66-12.07,2.6-.51.12-1.08-.08-3.63-.31,1.92-6.4,3.72-12.43,5.52-18.42-11.38-4.72-16.72-3.4-18,4.43-2.34,14.72-3,15.45-18.25,16-7.49.28-12.94,2.79-15.25,11.17,1.41.92,2.18,1.82,3,1.89,3.5.31,7,.4,10.54.52,8.64.3,11.39,4.52,7.58,12.45-4.27,8.9-9.27,17.44-13.39,26.4a27.21,27.21,0,0,0-2.35,11.83c.06,2.08,2.81,5.55,4.63,5.75,2.61.27,6.94-1.1,8-3.11Q405,1114.32,414.64,1093C417.68,1086.26,420.2,1081,429.37,1080.87Z"/><path d="M471.37,1133.9c-15.47-6.72-17.9-19.5-16.3-34.29.57-5.27-1.64-7.63-7.18-7.34-5.19.27-9.05,1.44-8.2,7.68s2,12.54,3.25,20.58c-14.49-.32-30.06,1.17-35.75,19.65,2.45,9.29,6.75,15.73,17.44,14.38,1.29-.17,2.76,2.51,4.42,3.35,1.86.93,4.6,2.37,6,1.67,6.07-3.15,12.42-6.28,17.46-10.76,5.43-4.83,9.63-8.06,16.42-2.27,1.65,1.41,5.65.06,8.57,0-.59-3-.8-6.06-1.91-8.8A8.3,8.3,0,0,0,471.37,1133.9Zm-38.59,8.44c-4,0-10.49,2.14-9.84-5,.22-2.36,6.1-4.19,10.45-6.94,4,2.88,9.26,4.83,9.38,7C443.15,1144.67,436.74,1142.31,432.78,1142.34Z"/><path d="M667,1116c0-7.56-.1-16.14,0-24.71.07-4.45-1.17-10.74,1.21-13,6.44-6.06,4.22-13.06,4.33-19.78,0-2.3-1.74-5.81-3.63-6.64-2.11-.93-6.61-.4-7.74,1.17-3.12,4.35-7.13,9.62-7,14.43.27,11.31-2.88,21.41-5.85,32-4.89,17.47,5.24,34,5.92,51.35.07,1.64,6.35,5,7.4,4.28a40.78,40.78,0,0,0,10.82-11.09,37.25,37.25,0,0,0,5-13.59c.77-4.5.25-9.31-.5-13.86C676.88,1116,672,1116.26,667,1116Z"/><path d="M614.24,937.31a18.92,18.92,0,0,0-1.44,4l-2.51-.34c0-11.79-.66-23.64.24-35.37.56-7.23,3.92-14.21,5.14-21.45.43-2.52-1.44-7.58-2.84-7.8-3.23-.51-8.15.12-10,2.3-2.91,3.49-4.72,8.47-5.44,13.07-1.5,9.57-1.92,19.3-2.89,29-.74,7.33-4.74,16.47-1.75,21.54,4.41,7.45,4.37,14.34,4.37,21.79,0,5.8.7,10.25,8,10,6.12-.2,11.88-.35,10.87-9.16-.24-2.06,1-4.27,1.5-6.43,1.41-6.63,3.07-13.23,3.91-19.93.22-1.78-2.16-3.89-3.34-5.85A50.53,50.53,0,0,0,614.24,937.31Z"/><path d="M695.52,960.93c-1.76-4.13-4.67-8.48-8.36-10.8-2.18-1.37-7.46-.14-9.95,1.76-8,6.1-27.55,1.07-32.8-9.34-1.09-2.16-4.72-4.43-6.95-4.22s-5.64,3-6.39,5.28c-2.51,7.72,2.77,16.56,11.63,19.21,9.44,2.83,19.17,4.7,28.77,7,.16-.66.31-1.32.47-2,5.76,0,11.65.72,17.21-.32C691.75,967,696,962.12,695.52,960.93Z"/><path d="M1080.47,963.48c2.72,5.72,4,11.41,7.51,14.93a24,24,0,0,0,13.84,6.67,24.69,24.69,0,0,0,14.86-4.05c5.67-3.81,7.1-27.86,2.83-31.26C1105.44,938.58,1097,941.6,1080.47,963.48Zm18,8.89c-1.34.36-5.33-3.31-5.1-3.87,1.94-4.64,4.58-9,7.48-14.28l13.23,8.61.66,3.39C1109.36,968.36,1104.06,970.86,1098.49,972.37Z"/><path d="M745.48,1131.19c-5.28-.91-10.83-.27-16.26-.29-10.64,0-21.82,2.16-29.16-9.23-1.13-1.77-6.39-2.7-8.42-1.59-2.39,1.31-3.34,5.25-3.69,5.88-.07,12.18,6.41,18.09,16.25,18.81,4.82.35,9.47,2.63,14.3,3.47,4.54.79,9.34,1.63,13.8,1a40.61,40.61,0,0,0,13.63-5c2.74-1.56,4.53-4.81,6.75-7.31C750.29,1134.89,748.12,1131.64,745.48,1131.19Z"/><path d="M694.44,1065.9c-2.61,3.59-3.79,8.23-6.06,13.59,1.49.68,2.86,1.86,4.24,1.87,13.73.15,27.48.45,41.19-.11a14.89,14.89,0,0,0,9.78-5.11c2-2.54,2.83-7,2.23-10.32-.28-1.56-5-3.18-7.8-3.26q-17.73-.54-35.47,0C699.74,1062.64,695.93,1063.86,694.44,1065.9Z"/><path d="M609.36,1142.46c-6-.87-12.42.9-18.1-.59-8-2.09-18.51-1.23-21.16-13-.37-1.65-4.45-3.54-6.68-3.39-2.07.14-5.47,2.68-5.68,4.47-.67,5.76-.41,10.72,4.29,16.38,8.62,10.38,18.87,10.41,28.34,9.61,7.56,0,13.47.75,19-.34,2.52-.5,5.5-4.43,6-7.22C615.68,1146.71,611.76,1142.82,609.36,1142.46Z"/><path d="M1163.65,1126.73c-9.73-.31-25.82,9.31-25,15.93.67,5.32,3.26,11.32,7,15,2.73,2.7,8.69,2.13,13.21,3,15.47-.2,18.68-2.43,19.17-13.94C1178.65,1132.74,1174.57,1127.07,1163.65,1126.73Zm-7.37,25.84c-8.66-5.53-8.43-9.19,1.56-20.78,4.4,5.18,8.27,9.72,12.53,14.72C1166.72,1150.66,1163.92,1157.46,1156.28,1152.57Z"/><path d="M663.8,886.18c-6.4,0-12.92-.75-19.14.31-3,.52-5.44,4.42-8.14,6.78,2.41,2.32,4.73,6.51,7.25,6.64a382.39,382.39,0,0,0,39.34,0c2.46-.13,4.7-4.42,7-6.79-2.38-2.3-4.52-6.17-7.2-6.6C676.71,885.52,670.2,886.19,663.8,886.18Z"/><path d="M570.3,1101c2.35,2.75,10.66,3.71,14,1.7,8.53-5.13,15.56-4.18,23,1.73,9.17-10.13,9.77-14.63.72-17.1-9.94-2.71-21.35-2-31.69-.26C572.19,1087.8,564.66,1094.43,570.3,1101Z"/><path d="M483.3,1081c-7.26-5.54-15.46-9.85-24.31-15.22-4.1,3.21-9.06,5.29-9.26,7.75-.22,2.7,3.43,6.5,6.31,8.49a88,88,0,0,0,17.54,9.54c3.06,1.19,7.09-.12,10.68-.3C484,1087.69,485.15,1082.36,483.3,1081Z"/></svg>