<svg id="Layer_1" data-name="Layer 1" xmlns="http://www.w3.org/2000/svg" viewBox="0 0 2000 1200"><defs><style>.cls-1{fill:#231f20;}</style></defs><title>Liberty</title><path class="cls-1" d="M1938.65,864.76c11.37,0,21.52,8.9,21.52,22.1S1950,909,1938.65,909s-21.54-8.91-21.54-22.13S1927.27,864.76,1938.65,864.76Zm0,39.41c9,0,16.36-7.15,16.36-17.31s-7.39-17.3-16.36-17.3-16.36,7.17-16.36,17.3S1929.57,904.17,1938.65,904.17Zm-8.38-28.91h9.15c5.85,0,9,2,9,7,0,4.37-2.71,6.11-6,6.45l6.44,10.52H1944l-6-10.31h-3.27v10.31h-4.46Zm4.46,10.25h4.15c2.8,0,5.11-.34,5.11-3.56,0-2.84-2.7-3.3-5-3.3h-4.22Z"/><rect class="cls-1" x="643.73" y="642.47" width="746.74" height="9.69"/><rect class="cls-1" x="1496.06" y="642.47" width="155.57" height="9.69"/><path class="cls-1" d="M707.74,552.48c0,15.73,6.57,20.65,30.19,20.65s34.45-7.21,49.88-39h5.57L787.81,584H641.14v-5.6c22-5.57,24.27-10.51,24.27-31.16V424.48c0-17.08-4.26-22-24.27-26.91V392H732v5.58c-19,4.93-24.29,8.86-24.29,25.59Z"/><path class="cls-1" d="M855.09,557.37c0,12.47,6.23,19.38,20,21V584H797.31v-5.6C814,575.1,818,570.5,818,554.75v-66c0-15.09-4.27-19.36-22.32-23v-5.59l53.83-4.59h5.59ZM836.7,378.54A21.29,21.29,0,0,1,858,399.86a21.58,21.58,0,0,1-21.33,21.68A21.87,21.87,0,0,1,815,399.86,21.58,21.58,0,0,1,836.7,378.54Z"/><path class="cls-1" d="M935.8,486.83c12.48-11.5,19-14.78,28.87-14.78,22,0,36.75,21,36.75,51.2,0,40.36-18.37,56.77-45.92,56.77-14.8,0-19.7-6.56-19.7-20.66Zm0-108.29h-5.59L880,382.15v5.58c11.5,2,18.71,7.87,18.71,18.37V584c18.69,3.59,37.08,4.9,60.37,4.9,60.39,0,83.34-31.51,83.34-69.58,0-36.1-25.57-64-59-64-17.73,0-32.84,7.21-47.59,22.65Z"/><path class="cls-1" d="M1096.9,503.56c1-23.63,11.14-39.37,26.28-39.37s26.23,16.39,27.52,39.37Zm93.84,7.56c-4.57-34.13-29.83-55.79-65-55.79-39,0-68.91,29.18-68.91,67.6,0,37.73,28.87,66,67.6,66,29.84,0,55.11-16.42,66.26-43h-5.55c-11.82,18-26.26,26.91-44.31,26.91-23,0-45.94-21-44-61.69Z"/><path class="cls-1" d="M1309.55,503.22c-10.85-10.47-19.38-16.07-27.92-16.07-11.13,0-18,4.6-27.54,17.72V555.4c0,14.79,2.94,19.35,21,23V584h-78.74v-5.6c16.42-3.94,20.64-8.86,20.64-23V490.1c0-15.75-6.85-23-22.6-24.28v-5.59l54.12-4.9h5.59v39.38h.66c12.14-26.92,25.58-39.38,41-39.38a28.87,28.87,0,0,1,22,10.49Z"/><path class="cls-1" d="M1518.52,460.23v5.59c15.76,3.27,19.36,13.13,8.22,39.38l-17.1,39.7-26.24-54.12c-7.57-15.76-7.57-23,6.56-25v-5.59H1380.33V412.34h-6.23c-17.42,22.32-37.76,42-53.19,51.52v6.24h22.32v79.41c0,28.21,18.72,39.37,42,39.37,18.38,0,30.55-6.58,39.73-22l-4-3.58c-5.89,6.91-11.48,9.85-18,9.85-17.4,0-22.65-11.82-22.65-31.84V470.1h33.17c18,0,23.31,6.57,31.19,23.3L1490,588.88c-15.1,40.69-28.22,57.08-51.18,57.08-4.93,0-8.87-.32-16.75-2.94l-7.55,37.4a64,64,0,0,0,10.51.66c25.59,0,39.69-10.84,52.85-41l62.33-142.43c10.16-22.95,14.1-27.54,29.86-31.82v-5.59Z"/><path class="cls-1" d="M708.9,870.87c0,16.83,4.21,21.69,24,26.54v5.52H643.18v-5.52c23.31-5.82,24-12.3,24-30.74V745.58c0-16.84-4.21-21.69-24-26.55v-5.5h89.68V719c-22.66,5.19-24,12.29-24,30.44Z"/><path class="cls-1" d="M853.62,824.9c0-18.46-8.42-29.13-22.66-29.13-12.3,0-22.66,7.1-30.43,21.36v57c0,12.63,2.26,18.45,18.13,23.3v5.52H744.84v-5.52c14.25-3.54,19.09-8.73,19.09-21V808.06c0-14.25-5.82-19.42-22-21.69v-5.51L795,776.33h5.51v29.46h.64c10.36-17.48,25.9-29.78,46.3-29.78,18.45,0,42.74,12.3,42.74,44.35v53.42c0,13,2.26,19.43,19.09,23.63v5.52H834.2v-5.52c14.56-3.23,19.42-9.06,19.42-22Z"/><path class="cls-1" d="M1007.07,814.22h-5.5c-7.45-18.45-21.36-29.47-37.55-29.47-11.33,0-20.4,5.5-20.4,13.6,0,25.9,70.9,16.84,70.9,67.34,0,26.22-24.28,42.09-44,42.09a88.23,88.23,0,0,1-20.07-2.27c-5.83-1-10.36-1.93-14.25-1.93a16.22,16.22,0,0,0-11.33,4.2h-5.5V860.52h5.5C937.15,886.41,951.72,899,969.19,899c11.66,0,21.7-8.09,21.7-17.81,0-32.38-71.88-22-71.88-68,0-19.43,15.87-37.23,42.74-37.23,5.51,0,12.63,1,18.79,1.62,6.14,1,11.32,2,13.58,2,2.92,0,5.83-2,7.45-3.25h5.5Z"/><path class="cls-1" d="M1040.42,807.41c0-13.6-4.53-18.44-19.1-21v-5.51L1071.5,776h5.5v90c0,14.58,9.4,21.37,22.67,21.37,12.3,0,19.75-5.18,30.42-22V804.5c0-10-6.46-15.86-19.09-18.13v-5.51l50.18-4.85h5.5v97.13c0,16.19,3.24,20.07,19.43,24.27v5.52l-56,4.85V878h-.64c-13.59,20.73-28.81,29.79-48.56,29.79-25.26,0-40.47-13.91-40.47-37.23Z"/><path class="cls-1" d="M1303.63,823.28c-10.69-10.37-19.1-15.87-27.52-15.87-11,0-17.81,4.54-27.19,17.49v49.85c0,14.58,2.91,19.12,20.71,22.66v5.52h-77.7v-5.52c16.18-3.87,20.4-8.73,20.4-22.66V810.33c0-15.54-6.8-22.67-22.34-24v-5.51l53.42-4.85h5.51v38.85h.65c12-26.55,25.25-38.85,40.46-38.85a28.45,28.45,0,0,1,21.7,10.36Z"/><path class="cls-1" d="M1425,879.29c0,11.34,2,16.19,7.45,16.19,5.19,0,8.42-3.89,9.71-11.33h5.19c-1.3,15.22-12,23.63-29.79,23.63-14.89,0-23.31-4.85-29.46-17.15l-2.91,2.58c-12.32,11-23.64,14.57-38.53,14.57-20.07,0-36.59-14.24-36.59-32,0-33,48.57-35.62,78.35-46.63,0-21.69-8.42-32.05-30.44-32.05-16.51,0-28.81,6.8-36.58,20.4h-4.85c6.47-26.22,26.22-41.44,54.71-41.44,26.23,0,53.74,12,53.74,45.65Zm-36.9-43.71c-30.44,12.95-39.83,20.4-39.83,36.91,0,13.28,6.8,22,16.84,22,7.45,0,14.56-4.2,23-12.62Z"/><path class="cls-1" d="M1559.39,824.9c0-18.46-8.43-29.13-22.66-29.13-12.3,0-22.67,7.1-30.44,21.36v57c0,12.63,2.28,18.45,18.14,23.3v5.52H1450.6v-5.52c14.25-3.54,19.12-8.73,19.12-21V808.06c0-14.25-5.84-19.42-22-21.69v-5.51l53.1-4.53h5.5v29.46h.65c10.36-17.48,25.9-29.78,46.3-29.78,18.45,0,42.74,12.3,42.74,44.35v53.42c0,13,2.26,19.43,19.1,23.63v5.52H1540v-5.52c14.57-3.23,19.42-9.06,19.42-22Z"/><path class="cls-1" d="M1750.4,820.36h-5.5c-12-25.24-25.9-36.9-45-36.9-24.94,0-40.15,20.72-40.15,54.07,0,34.32,16.84,55,45,55,18.14,0,28.49-5.5,42.74-23H1754c-12.29,25.9-33.67,38.2-65.72,38.2-41.11,0-69-25.58-69-63.45,0-38.85,31.42-68.32,73.18-68.32a152.87,152.87,0,0,1,23,1.94c6.8,1,12.62,1.95,17.16,1.95s5.83-.66,9.72-3.89h5.17Z"/><path class="cls-1" d="M1799.61,831.05c-1.95,40.14,20.73,60.86,43.39,60.86,17.8,0,32-8.73,43.7-26.55h5.5c-11,26.23-35.94,42.42-65.4,42.42-38.2,0-66.69-27.84-66.69-65.08,0-37.87,29.47-66.69,68-66.69,34.65,0,59.58,21.37,64.1,55Zm53.11-7.45c-1.31-22.66-12.32-38.85-27.21-38.85s-24.92,15.54-25.9,38.85Z"/><path class="cls-1" d="M397.86,481.51a27.61,27.61,0,0,1,5.67,3.19l51.71-57.26c-16.78-17.95-33.23-29.82-55.86-40.09-8.42-3.74-11-5.06-20.11-7.67L391.65,479S395.69,480.45,397.86,481.51Z"/><path class="cls-1" d="M225.48,388.81l92.61,90.08s3.5-1.79,5-2.35a49.23,49.23,0,0,1,5.95-1.8L338,372a242,242,0,0,0-25.15-1.95c-23-.79-55,3.8-76.08,13.14A63,63,0,0,0,225.48,388.81Z"/><path class="cls-1" d="M170.51,797.44c-.36-38.36-8-94.25-14.6-117.55-4-14.34-35.55-110-36.44-113.57-.6-2.42-1.68-27.63-2.56-50-15,41.77-22.46,90.14-22.46,142.09v0c0,84,21.66,159.64,63.14,212.9,12.14-31.23,12.23-55.38,12.9-73.3C170.49,797.81,170.51,797.65,170.51,797.44Z"/><path class="cls-1" d="M282.82,805.29c35.94-30.88,57.64-41.44,95.91-61.14-56.56,11.68-121.15,50-156,94.61a593.34,593.34,0,0,0-39.94,57.78,112.16,112.16,0,0,0,16.64,9.25C224.13,858.9,260.17,824.65,282.82,805.29Z"/><path class="cls-1" d="M199,403.23A26.64,26.64,0,0,0,193,408.5c16.36,42.14,38.73,97.95,44.28,113.62.71,2,1.44,4.19,2.13,6.43l37,18.89.61-.4s-.39-5.26-.43-6.84a55.24,55.24,0,0,1,1-6.65L204.85,399.91A36.23,36.23,0,0,0,199,403.23Z"/><path class="cls-1" d="M292.91,820.2c-38.51,36.95-64.48,82.25-72.17,93.38,3.95,1.23,8.07,2.43,12.4,3.6C317.15,767.64,450.75,734,526,730.93c1-4.2,0,1,.89-6.26C475.24,723.66,376.62,741.79,292.91,820.2Z"/><path class="cls-1" d="M460,525.5a6.19,6.19,0,0,1,1.31,1.66l45.9-19.63a281.39,281.39,0,0,0-20-40.25l-29.48,56.35A13,13,0,0,1,460,525.5Z"/><path class="cls-1" d="M481.94,598.31a56.43,56.43,0,0,1-4.76,10.28l2.92,34.89,37.42,61.86,11.19,1.88a470.76,470.76,0,0,0,2.59-48.85c0-37.48-1.17-70-9-102.65l-38.18,31.95S483.11,594.26,481.94,598.31Z"/><path class="cls-1" d="M575.83,496.48l-93.89,72.2c-1.53-11.68-5.43-22.1-11.46-29.91l104.83-43.19s.7-.29.88.05S575.83,496.48,575.83,496.48Z"/><path class="cls-1" d="M222.67,405.92a.46.46,0,0,1,.14-.66.48.48,0,0,1,.67.13l79.8,81.71c-7.59,4.27-15.64,14.65-18.95,24.07Z"/><path class="cls-1" d="M269.12,558.81a28.67,28.67,0,0,0-2.29,9.68,33.68,33.68,0,0,0,1.65,10.81l-24.11-16.61c.27-5.64-.21-7.05-.56-11.89,0-.5-.73-6.45-.85-7.18Z"/><path class="cls-1" d="M231.21,740.8c-3.09,28.61-10.08,53.48-20.57,71.23-6.74,11.46-25.68,34.61-32.3,43.37,7.17-14.31,12.73-48.84,12.28-75.73-.31-17.43-5.62-55.91-1-81.39,5-27.35,12.73-42.76,31.07-59.6,9.35-8.6,28.46-19.59,55.77-12.17L298.51,668c-11.81-2.26-27.43-.23-37.86,7.78C241.07,690.87,234.5,711.14,231.21,740.8Z"/><path class="cls-1" d="M233.37,797.25c5.38-12.08,12.44-46.55,14.41-58.08,2.55-14.81,4.93-36.4,22.56-50.9,8.66-7.18,22.86-8.1,28.52-6.44l25,50.87c2.25,5.41,9.58,7.28,14.48,7C314.91,747.3,255.92,775.33,233.37,797.25Z"/><path class="cls-1" d="M445.88,634.8c-4,6.28-2.58,12.29-.33,16.5,2.51,4.73,15.73,29.17,15.73,29.17a153.23,153.23,0,0,0,11.41,23.79c7.14,0,14.92-.18,23.11,0-8.74-19.56-28.69-57.34-28.69-57.34l-2.79-29.86C458.48,620.53,449.93,628.55,445.88,634.8Z"/><path class="cls-1" d="M357.08,322.25,344.13,472.19c8.63-1.56,27.89,1.1,32.6,3.25L357.92,322.25s-.08-.52-.45-.52S357.08,322.25,357.08,322.25Z"/><path class="cls-1" d="M149.28,353.89c-.6-1.76-1.84-6.54-3.89-7.43-2.24-1-7-3.66-9.88-4.79-2.48-1-6.89-5.64-9-5.64-9.83,0-21.19-3.28-25.06-6-4.17,8.05-1.29,12.61,2.44,16.36,3,3,11,5.4,18.74,6l2.08,44.46c2.11,3.3,8.64,5.35,14.34,5.66V404l-7.78,5.68c.31,5.07,7.16,150,8.67,152.69s36.66,110.13,37.58,116.69c2.5-12.38,13.6-39.3,26.11-51.55,12.83-12.52,28.47-18,38-17.69-2.1-2.4-12.8-27.47-13.11-29.85s-4.47-33.68-5.67-35.78S149.86,355.7,149.28,353.89Z"/><path class="cls-1" d="M508.79,392.91l-92.23,99c6.15,3.74,21.79,15.67,28.21,21.76l64.69-120.28s.25-.45,0-.64S508.79,392.91,508.79,392.91Z"/><path class="cls-1" d="M460.81,556.83c-1.11-5.8-15.68-23.15-40.42-41.88-19.33-14.7-47.66-29.17-71-29-39.39.23-55.64,27.27-58.59,41.38-1.82,8.52-1.35,17.77.43,22.81-6.29,5.39-8.65,9.72-9.86,15.82-.85,4.44,0,10.74,4,14.62-.46-5.82,3.51-12.59,6.72-17,3.59-4.92,9.56-6.86,15-10.12l.88,10.77c-5.13,2.93-11.39,9.19-11.81,12.47l.42,17.79,13.54-8.12,2.58,5.43-4.91,31.31,7.6-1.36,13.89,5.7-13.45,11.28v4.47s2.06-2.74,6.78-2.53,16.93,5.68,16.93,5.68l-.45,2.7h-23.7c-.9,3.13,1.9,5.54,3.67,6.85,3.11-.87,6.39-2.47,8.15-2.47s5.9,1.05,9.51,1.5l-4.34,5.75s-2.19,1.7-6.25.89c-2.23-.47-4.48,2.67-4.48,5.23,0,2.73,1.77,9.43,1.77,9.43,2.18,10,12.47,8,13.79,7.92,6.53-.58,27.85-8.26,27.85-8.26l-20.48,28.73,8.94,30.68c13.52-5.56,53.87-19.87,97.7-27.08-4.78-8-5.57-11.1-11.44-22.94l-22.39-51.45,3.13-7.62c4.93,1.8,12.53-1.79,17.47-5.81s10.75-11.18,13-15.67c-3.11-1.77-5.82-1.34-8.49.46s-4.78,5.24-8.5,3.57c-4-1.75-2.08-6.18-1.62-10.24s-4.66-4-8.21-1-11.2,1.8-16.12-3.08-28.62-24.64-37.12-29.54c-12.25-7-28.67-8.83-40.72-6.67-7.06,1.24-12.11,4.4-14.78,3.07l-8.86-13.69,1.44-.9c3.13,1.36,6.1,3.88,10.09,2.52a115.37,115.37,0,0,1,28.65-4.49c17.92-.3,39.66,6.24,49.22,10.32.45,11.63,23.86,26.38,34.42,27.71,8.93,1.13,14.37-1.33,19.71-4.46l-22.83-20.08L439.3,543s19.26,18.35,22,21.95C462.12,562.79,461.26,559.3,460.81,556.83ZM323.44,580.09s9.83-5.62,19.1-7.61c13.65-2.92,28.77,5.28,39.51,13.7L380,589.42,364.63,593c-3-2.65-8.68-3.85-14.79-3.56a29.63,29.63,0,0,0-9.83,2.28l3,4.87L336,598.42c-3.13-4-8.06-8.94-12.53-10.26Zm-23.29-35.34c-4-13.5,6.73-26.85,11.66-31.75l7.6,17.45A109,109,0,0,0,300.15,544.75Zm70.74-15.21c-7.2-4.92-30.88-4-40.72-1.79L323,507.14c5.36-4,15.65-6.68,25.06-6.68s19.69,2.24,26.85,5.83Zm46.5,21.12c-9.84-6.33-29.1-15.74-34.86-17.53L391,511.2c7.16,3.61,33.56,19.67,37.58,23.72Z"/><path class="cls-1" d="M103.57,318.3c20.28,0,29.9,8.48,34.64,12.95.61-6.86-.48-12.91-6.86-18.09-5.29-4.3-14.62-8.09-28.93-8.09-9.55,0-19.14,2.81-25.12,7.85-5.44,4.64-6.36,9.87-5.17,17.65C73.92,324.93,86.85,318.22,103.57,318.3Z"/><path class="cls-1" d="M61.83,211.88c-.44,7.73,1.61,15.82,5.2,20.59,2,2.71,6.87,7.92,10.43,7.73,5.09-.3,9.83-10,21.79-9.56,7.73.3,12.8,11.27,19.37,11.64,5.08.32,7.76-4.77,12.88-5.31,4.39-.47,5.9,1.75,8.6,4.42,1.8-4.14,4.39-7,11-11.91,8.06-6,35.47-11.65,47.14-22.09,5.83-5.22,7.14-14.88,5.28-21.37-4.41,6.2-16.62,12.74-28.57,13.32-6,.31-20.26-2.34-25.34-5,2.53-4.38,3.37-9.34,1.26-14.14-3.88,3-20.64,4.65-27.21,4.65s-19.37-2.68-29.3-2.12C72.64,183.89,62.54,199.34,61.83,211.88Z"/><path class="cls-1" d="M75.12,370c-3.29.6-10.15,6-13.49,11.54,1,3.63,4.84,12,8.64,14.32.88-3.87,5.13-10.34,7.24-11.82a59.15,59.15,0,0,1,8.31-4.78c2.42-1.18,3.29-2.4,3.29-5.1a13.32,13.32,0,0,0-1.54-6.62c2.39-.27,6.79.09,8.29-2A12.77,12.77,0,0,0,98.09,358c0-2.68-1.21-3.29-3.87-3.57a110.09,110.09,0,0,0-14.39-.2l7.8-4a5.52,5.52,0,0,0,2.71-4.13,27,27,0,0,0-.62-8.93c-9,.26-24.75,8.32-28.92,11.9l3.3,8.07-6-.24c-.92,4.09-.31,10.36,1.48,14A71.69,71.69,0,0,1,75.12,370Z"/><path class="cls-1" d="M127.28,439.15c-.28-3.28-2.61-5-5-7.13a103.92,103.92,0,0,0,.92-21.49,31.41,31.41,0,0,0-6-17c-3.85-5.49-11-12.81-15.89-16.11,0,3-1.32,5.31-4.31,6.21s-14,8.69-14,8.69l2.27,39.07a.66.66,0,0,0-.19.09,1.87,1.87,0,0,0-.34.15c-4.16,2.09-8.52,6.23-7.77,12.5.69,5.93,5.62,10.49,14.83,12.54,1.25.29,2.6.54,4,.75l.3-2a29.16,29.16,0,0,1-3.33-.7c-9.24-2.33-10.82-9.08-4.88-11.64a44.8,44.8,0,0,1,16.2-3.33c7.77-.32,17.6,4.49,21.18,6.57C126.4,443.62,127.6,442.45,127.28,439.15Z"/><path class="cls-1" d="M175.61,303.73c-.23-4.76-7.44-18.18-7.73-22.67s.9-7.45,1.79-11.64c-3,.59-13.44,4.8-17.92,1.21-4.78-3.85-1.48-13.42-7.74-15.81s-16.1,5.06-22.38,4.17-11.63-9.51-18.17-9.51-9.86,8-17.92,9.82c-6.21,1.38-16.51-3.32-20.6-3-4.46.3-7.16,3.81-9.17,8.07s-3.54,6.07-8.79,7.38c-4.17,1.05-10.2-2.62-13.18-2,1.42,1.42,2.85,5.43,3.27,9.58-.29,12-8.51,16.31-8.51,34.5C28.56,333.59,49.5,343,49.5,343L52,341.23a27.7,27.7,0,0,1-15-24.16,26.66,26.66,0,0,1,.14-2.87,31.41,31.41,0,0,1,9.65-17.72l.18-.19c11.63-10.94,32.25-17.21,57.93-16.72,47.11.9,68.41,22.67,69,40.56C176.2,314.76,175.92,309.7,175.61,303.73Z"/></svg>