<svg id="Layer_1" data-name="Layer 1" xmlns="http://www.w3.org/2000/svg" viewBox="0 0 3168.78 1200"><defs><style>.cls-1{fill:#231f20;}</style></defs><title>Maybank</title><path class="cls-1" d="M2575.4,489c-53.81,0-94.47,9.35-128.94,20.41V753.84H2541V557.66s15.59-6.57,33.24-6.57c33.77,0,45.88,14.15,45.88,35.69V753.84h94.57v-176C2714.68,521.72,2672.28,489,2575.4,489Z"/><polygon class="cls-1" points="2941.66 616.36 3037.92 496.51 2931.32 496.51 2845.93 606.92 2844.76 606.92 2844.76 379.14 2751.4 379.14 2751.4 753.84 2844.76 753.84 2844.76 625.39 2845.93 625.39 2940.51 753.84 3045.98 753.84 2941.66 616.36"/><path class="cls-1" d="M1997.15,493.21c-16,0-36.67,3.29-48.73,7.63V379.15h-94.55v362c25.83,9.9,69.94,18.47,115.8,18.47,104.88,0,162.74-46.16,162.74-142.83C2132.41,538,2077.4,493.21,1997.15,493.21ZM1976,698.4c-10.91,0-21.8-1.39-27.54-3.22V557.65a89.92,89.92,0,0,1,29.8-5.31c37.8,0,59.61,25.84,59.61,71.19C2037.83,671.3,2014.91,698.4,1976,698.4Z"/><path class="cls-1" d="M2283.82,489c-56.47,0-94.72,11.39-122.21,20.41l23,52.53c22.26-7.53,57.77-15.79,87.59-15.79,32.16,0,49.27,9.66,49.27,30.17v10c-93.33,4.13-177.06,20-177.06,88.25,0,55,48.18,84.94,145.52,84.94,49.37,0,97-8.56,120.5-18.44V585.76C2410.44,517.45,2368,489,2283.82,489Zm37.66,212.28c-6.24,2.05-21.15,4-34.38,4-33.76,0-55-11.51-55-32.41,0-30.62,38.44-35.3,89.35-37.4Z"/><path class="cls-1" d="M1385.15,489c-48.17,0-94.6,11.4-122.13,20.41L1286,562c22.33-7.53,57.86-15.78,87.7-15.78,32.1,0,49.28,9.65,49.28,30.17v10c-93.4,4.13-177.07,20-177.07,88.26,0,55,48.08,84.93,145.56,84.93,49.25,0,96.9-8.56,120.34-18.43V585.77C1511.79,517.45,1469.42,489,1385.15,489ZM1423,701.3c-6.38,2.05-21.25,4-34.37,4-33.83,0-55.06-11.51-55.06-32.41,0-30.62,38.41-35.3,89.43-37.4Z"/><polygon class="cls-1" points="1073.92 408.26 1001.24 621.77 928.45 408.26 818.36 408.26 768.54 753.85 858.5 753.85 887.14 516.34 971.44 753.85 1030.99 753.85 1115.29 516.34 1143.97 753.85 1233.92 753.85 1184.01 408.26 1073.92 408.26"/><polygon class="cls-1" points="1672.51 679.31 1609.74 496.51 1506.87 496.51 1623.2 753.84 1576.82 856.72 1675.97 856.72 1837.59 496.51 1734.64 496.51 1672.51 679.31"/><path class="cls-1" d="M393.92,293C234.91,293,106,421.81,106,580.84s128.9,287.91,287.91,287.91S681.81,739.88,681.81,580.84,553,293,393.92,293Zm0,552.62c-146.21,0-264.75-118.56-264.75-264.79s118.54-265,264.75-265,264.79,118.81,264.79,265S540.23,845.63,393.92,845.63Z"/><path class="cls-1" d="M286.37,605.94c10.62-8.94,9.53-22.17-6.92-26.52-12.16-3.08-38.41,18.91-41.25,43.13C248.74,609.08,279.07,584.28,286.37,605.94Z"/><path class="cls-1" d="M233.78,568c11.51-14.61,20.13-21.66,32-25.35C257.06,535.62,240.69,544.3,233.78,568Z"/><path class="cls-1" d="M476.83,579.49C445,537.17,494.41,507,431.27,456c33.42,52.3-19.51,103.36-13.84,135.33s36.1,46.47,34.21,77.63c40.41-54.48-20.84-86.59-3.11-110C452.25,564.8,464.46,575.75,476.83,579.49Z"/><path class="cls-1" d="M279.07,567.67c-14.67-28.69-45.28,12.11-48.8,37C240.34,586.5,258.47,562.38,279.07,567.67Z"/><path class="cls-1" d="M350,417.71c-2.87,14-37.15,17-44.86,37.46,18.77-16.56,42.44-9.85,59.94-26.14C370.33,423,357.45,417.77,350,417.71Z"/><path class="cls-1" d="M454.33,448.51c1.85-15.92-7.17-47.42-20.57-54.66-5.75-3.12-14.07,18.91-11.31,26.87h0C437.46,430.46,444.54,436.84,454.33,448.51Z"/><path class="cls-1" d="M303.77,512.6c5.81-10.63,8.73-14.48,15.2-19.68,6,4,16.68,1.16,31-14.39.68-.9,1.66-.57,1.29.41-11.38,39.2-40.48,45.52-49.78,43.67,5.56,8.48,42.59,13.64,47.28-2.87,10.51-37.31,46.4-53.54,15.38-52.82,8.41-9.85,36.58-19.05,42.63-26.13,7.32-8.27.61-19.55-29.48-23.24,31.35,15.2-19.06,18.58-20.8,44.94-16.46,6.42-29.63-4.27-37.82,3.1-7.89,7.15-17,2.21-14.34-6-9.5,4.86-7.59,17.8,1.66,21.82,1.81.79,3.43,2.5,2.05,3.82C297.93,494.81,293.16,503.19,303.77,512.6Zm26-40.45a133.53,133.53,0,0,0,14.9,0c-8.31,4.31-12,14.5-16.2,14.42-2.27,0-4.36-3.18-5-7.35C326.45,486.79,334,483.15,329.72,472.15Z"/><path class="cls-1" d="M268.32,479.52c9.05-31,19.31-40.3,60.27-58.82,16.12-7.25,42.38-21,65.64-22.94-.31,2.38-2.34,9.68-4.17,12.41a15.87,15.87,0,0,0,16.27-12.72c5.13-22.56,13.19-52.75,28.35-40.16,11.76,9.64,38.14,42,39.74,98.23-2.9,1.81-7.72,2-12.37.52,14.07,27.65,60.14,40.41,49.53,3.68,19.59,13.77,51.65,32.09,56,75.7,11-46.65-3.51-78.6-25.58-97.89,10.94,1.17,24.23,4.06,36,11.92-27-33.21-58.28-44.7-78.25-53.66-23.64-30.2-35.79-36-53-50.05-16.63-13.76-29.52-12.65-36.15-2.24-7.26,11.31-12.8,33.18-14.48,41.13a89.8,89.8,0,0,1-10.1,1.23c-9.78-14-23.44-20.18-27.42-20.18s-3.46,16.49-5.8,30.12c-92.62,35.95-89.72,51.37-98.54,74.2-38.24,22.59-61.81,53-71.49,78.58C198.42,530.68,235.87,493.31,268.32,479.52Z"/><path class="cls-1" d="M427.12,475c-10.19-8-29.86-8.77-36-3.23C374.34,486.73,382.9,515.1,377,533c-12.31-8.24-24-2.44-30.36,5.31-7.9,9.09-10.6,23.12-33.53,17.77-19.7-4.94-7.86-45.15-48.73-24.45,33.79-1.72,13.94,19.79,25.77,36.93,9.08,13.61,21.23,13.53,30.38,10.25,18.36-6.07,36.88,8.67,44.16,22.34,4.78-14.16-1-28.69-18.85-36.37,26.25-37.42,50,35.68,41.48,73.82,31.28-51.86,4.29-92.65-.27-97.87C395.6,492.13,412.64,474.85,427.12,475Z"/><path class="cls-1" d="M578.63,544.56c-43.55,42.26,24.51,146-74.25,214.1,14.73-23.8,21.45-82.81,16.18-104.33,5.27,2.17,10.62,8.58,14,14.17,8.16-27.18,9.21-65.55-6.34-104.49,5.42.78,16.49,5.64,21.58,10.36,2.46-60-41.46-64.47-49.72-80.76,0,17.54,20.49,32.27,24.25,55.22-14.39-6.83-24.85-7.52-32.27-6.83,11.13,8.16,35.81,56,28.51,94.32-10.63-8.94-20.49-13.05-31.14-14,13.07,20,18.4,71.81,2.08,95.69-.45-5.42-2.39-21-8.54-27.45-7.73,29.11-30.42,41.3-46,45,19.38-20.23,15.61-56.18-12.74-65.71-25.47-8.71-57.92,8.6-71.09,69.27-18.37,5.44-73.66-6.35-40.6-42.1,20.13,6.84,71.36-27.37,67.92-51.47-5-33.46-35.41-45.21-59.63-45C290.9,601.1,270.7,629,246.28,641c-20.4-3.06-27.37-5.94-37.73-33.22-1.34-16.55,16.36-28.24,16.08-45.43-14.51,3-18.1-18.81-46.38,3.88-2.2-4.14,1.52-13.91,1.52-13.91-10.46,9.5-12.43,20.67-12.64,23,5.13,10.13,12.27,19.22,26.19,28.26,16.68,44.63,33.79,49.58,51.47,51.24,3,4.23,16.08,19.9,32.72,22.42-2.84-8.41-3.26-32-1.58-37.88,36.18-36.27,63.07-14.22,66.56-4.54-32.16,6.48-9.43,75.22-62.73,44.64-2.15,7,.79,24.59,7.57,34.85,5.44,46.95,64.64,35.6,83,43.73-2.05-45.68,23.28-79,45-76.29s27.45,38.28-9.72,71.92c9.11,5,49-1.79,69.33-16.52,1.85,11.68-13.15,45.85-31.83,70.2,156.42-36,226.28-205.51,153-338h0c20.84,72.63,15,142.56-6.48,184.42C592.39,627.59,569.38,589.3,578.63,544.56Zm-377.08,53h0c-7.44-5.19-19.1-17.35-20.33-21.76,1.46-1.66,7.68-8.33,15.63-10.61,5.73-1.51,9.5,1.67,8.66,3.41-.82,2.09-5.93,2.09-7.43,6.46-2.33,6.65,5.07,8.76,6.61,11.77C205.57,588.75,207.6,593.71,201.55,597.56Zm51.9,52c1.74-4.19,9.55-9.58,13-9.93-1.39,11.73,2.9,27.72,2.9,27.72S253.59,657.36,253.45,649.55Zm81.39,11c4.08.6,7.57,3.88,11.26,1.17s-.16-13.56-3-17.21c3.57-.6,17.8.82,17.08,5.89-1.68,13.57-10.11,17.82-30.45,27.58C333.2,674.72,332.63,667.58,334.84,660.5Zm-41.09,44.93c-2-1.6-7.38-8.64-6.87-16.19,6.87,4.43,16.19,6.66,16.19,6.66S298.67,703.38,293.75,705.43Z"/></svg>