<svg id="Layer_1" data-name="Layer 1" xmlns="http://www.w3.org/2000/svg" viewBox="0 0 2356.94 1200"><defs><style>.cls-1{fill:#231f20;}</style></defs><title>Principal</title><path class="cls-1" d="M1260.21,456.51c-26.94,0-50.54,11.79-65.69,31.17l-3.37-26.11h-34.59V666.26h41.32V551.7c0-34.52,21.9-58.16,53.07-58.16,27.8,0,45.51,17.72,45.51,45.51V666.26h41.26V534C1337.72,487.68,1306.56,456.51,1260.21,456.51Zm-177.75-76.64c-15.18,0-27,10.94-27,26.09s11.79,26.12,27,26.12,26.12-11,26.12-26.12S1097.61,379.87,1082.46,379.87Zm-21,286.39h41.23V461.57h-41.23ZM944.3,487.68l-3.38-26.11H906.37V666.26h41.32V555.94c0-39.62,18.53-60.65,53.89-60.65,5.93,0,14.33,1.64,22.76,3.32l5.05-35.37a74.07,74.07,0,0,0-27.81-5C978,458.2,956.1,469.1,944.3,487.68ZM353.17,259.32c-162.11,0-284.53,126.63-284.53,293C68.64,726.19,202,871.4,375.12,887.47V666.23c-81.06-7.59-136.78-67.5-136.78-146.87,0-76.84,51.49-132.56,122.42-132.56,65,0,108.89,40.53,108.89,100.47,0,53.18-33.73,87.83-94.53,97.1v81.86c124.92-3.33,206-79.32,206-193.33C581.11,349.64,484.89,259.32,353.17,259.32Zm426,128.12H678.93V666.26h43V567.68h57.25c59,0,98.58-36.2,98.58-90.12S838.13,387.44,779.16,387.44Zm-5.87,144H721.91V423.67h51.38c38.74,0,61.49,19.36,61.49,53.89S812,531.48,773.29,531.48ZM1582,666.26h41.25V461.57H1582Zm682.9-260.06c0-9-6.93-15.14-16.61-15.14h-20.62V438.4h10.23V421.68h6.84l10.13,16.72h11.6l-11.83-18.32C2260.84,418.6,2264.94,413.26,2264.94,406.2Zm-18,7.39h-9V399.37h9c4.55,0,7.6,2.84,7.6,7.18S2251.5,413.59,2247,413.59ZM2177.63,635.1c-14.31,0-19.36-5.87-19.36-21.9V374.77H2117V619.11c0,32.85,18.55,51.39,53.08,51.39,8.41,0,17.68-1.68,23.56-4.24l-4.21-32.82A58.05,58.05,0,0,1,2177.63,635.1ZM1475,493.54c16.87,0,36.27,7.62,52.27,19.43l18.48-30.32c-18.48-16-46.29-26.14-72.42-26.14-59.81,0-103.61,44.65-103.61,107,0,64.88,40.45,107,101.08,107,28.66,0,58.15-10.1,75-26.12l-18.48-29.49c-15.18,12.6-32,18.55-50.6,18.55-39.55,0-64.86-27-64.86-70C1411.82,521.39,1437.13,493.54,1475,493.54Zm770.45-120.67c-24.56,0-41.88,17.28-41.88,41.87s17.32,41.87,41.88,41.87,41.88-17.3,41.88-41.87S2270,372.87,2245.46,372.87Zm0,76.11c-20.11,0-34.25-14.11-34.25-34.24s14.14-34.25,34.25-34.25,34.25,14.11,34.25,34.25S2265.6,449,2245.46,449Zm-642.4-69.11c-15.13,0-26.93,10.94-26.93,26.09s11.8,26.12,26.93,26.12,26.13-11,26.13-26.12S1618.23,379.87,1603.06,379.87Zm176.11,76.64c-26.14,0-50.55,11-65.73,31.17l-3.36-26.11h-34.54V748.82h41.29V650.28c12.62,11.79,36.2,20.22,56.4,20.22,56.48,0,94.42-45.49,94.42-111.21C1867.65,497.79,1832.22,456.51,1779.17,456.51Zm-12.65,176.93c-18.54,0-38.75-9.27-48.85-21.89V550c0-34.51,21-56.45,53-56.45,33.72,0,54.77,25.32,54.77,65.75C1825.48,606.45,1803.58,633.44,1766.52,633.44ZM2077.41,636c-10.11,0-14.35-5.08-14.35-15.15V532.32c0-47.18-31.13-75.81-82.59-75.81-25.23,0-53.9,6.73-78.33,18.53l12.64,32.85c17.7-10.1,38.76-16,59-16,32,0,48.84,14.34,48.84,42.12v9.28c-12.65-3.38-29.47-5-44.64-5-53.93,0-86,26.09-86,69,0,37.94,30.35,63.21,74.16,63.21,26.11,0,47.19-10.1,61.48-27.82,5.89,17.72,21,27.82,41.3,27.82,8.44,0,17.66-1.68,23.56-4.24l-4.2-32A49.18,49.18,0,0,1,2077.41,636Zm-54.79-51.41c0,32.88-19.4,52.27-51.38,52.27-23.57,0-37.9-12.64-37.9-32.87,0-22.74,18.54-36.26,49.67-36.26a188.69,188.69,0,0,1,39.61,4.25Z"/></svg>