<svg id="Layer_1" data-name="Layer 1" xmlns="http://www.w3.org/2000/svg" viewBox="0 0 1995.93 1200"><defs><style>.cls-1{fill:#231f20;}</style></defs><title>SBH</title><path class="cls-1" d="M392.69,222.14c-199.93,0-362,162.08-362,362s162.08,362,362,362,362-162.08,362-362S592.63,222.14,392.69,222.14Zm104.65,376.2a42.78,42.78,0,0,1-20.56,16q-13,5-39.86,5H407.05v163h28.58v10.6H423.78a22.65,22.65,0,0,0-10.8,2.8,10.85,10.85,0,0,0-4.8,5.16,21.87,21.87,0,0,0-.95,4.78c.22,4.18.63,7.24,1.28,8.94a11,11,0,0,0,4.8,5.17,22.66,22.66,0,0,0,10.78,2.8H436v10.6H384.45V619.69H325.87v49.16c0,8.17.47,13.53,1.44,16.09a10.89,10.89,0,0,0,5,5.17,21.73,21.73,0,0,0,10.63,2.81h5.85v4.42H280.53v-4.42h5.69q9.76,0,14.27-5.76,2.81-3.84,2.79-18.31V564.77c0-8.16-.51-13.59-1.47-16.25a10.34,10.34,0,0,0-4.82-5,21.7,21.7,0,0,0-10.77-2.94h-5.69v-4.44h68.23v4.44h-5.85a21.83,21.83,0,0,0-10.63,2.8,10.18,10.18,0,0,0-5,5.76q-1.38,3.84-1.38,15.65V611h58.52V497c-7.7,4.42-16.71,6.68-27.08,6.68a78.63,78.63,0,0,1-13.12-1c-2.42-.4-7.46-1.84-15.1-4.36s-12.46-3.76-14.5-3.76a6,6,0,0,0-4.59,1.77c-1.12,1.19-1.95,3.65-2.56,7.38h-4.23V448.51h4.23c2.05,11.51,4.78,20.15,8.25,25.91s8.72,10.53,15.8,14.32a48.85,48.85,0,0,0,23.35,5.69q14.57,0,23.1-7.83a27.16,27.16,0,0,0,6.12-8.12h0l.39-.81a23.72,23.72,0,0,0,2-9.67,25.44,25.44,0,0,0-3.22-12,34.6,34.6,0,0,0-10.05-11.22c-3-2.35-11.31-7.39-24.94-15.12S325,415.78,319.19,411.15a49.49,49.49,0,0,1-13.13-15.28,38.15,38.15,0,0,1-4.45-18.23q0-17.42,13.12-30t33.53-12.54q12.69,0,26.82,6.35c4.39,2,7.5,2.94,9.33,2.94a6.81,6.81,0,0,0,4.89-1.84q2-1.85,3.14-7.45h4.37v55.8h-4.37q-2-16.08-7.5-25.54a40.08,40.08,0,0,0-15.6-15.05,42.62,42.62,0,0,0-20.93-5.62q-12.11,0-20.11,7.53t-8,17.13a20.29,20.29,0,0,0,5.08,13.43q7.31,9,34.57,23.78,22.29,12.1,30.46,18.6a44.93,44.93,0,0,1,12.54,15.28,40.73,40.73,0,0,1,4.32,17.7h23.23q19.25,0,30.92,2.95,17.61,4.27,26.9,15.14a37.38,37.38,0,0,1,9.25,25A35,35,0,0,1,490.27,523q-7.29,9.62-21.43,14.18,16.47,3.55,24.63,11.37a35.65,35.65,0,0,1,11.39,26.73A40.31,40.31,0,0,1,497.34,598.34Z"/><path class="cls-1" d="M429.49,532.42q17,0,25.72-3.76a27.9,27.9,0,0,0,13.27-11.52,32.59,32.59,0,0,0,4.59-16.91q0-14-11.46-24.06t-33.16-10a77.94,77.94,0,0,0-21.15,2.65v61.87a80.31,80.31,0,0,0,9.84,1.33Q422.78,532.42,429.49,532.42Z"/><path class="cls-1" d="M456.15,545.56q-11.36-5-28.15-5-7.26,0-12.45.29a65.11,65.11,0,0,0-8.25.88v66A114.78,114.78,0,0,0,434.13,611q21.31,0,32.45-9.66t11.16-24a35.13,35.13,0,0,0-5.1-18.08Q467.51,550.57,456.15,545.56Z"/><polygon class="cls-1" points="845.08 513.7 891.78 513.7 891.78 496.63 845.08 496.63 845.08 468.79 894.63 468.79 894.63 451.73 826.21 451.73 826.21 557.71 845.08 557.71 845.08 513.7"/><rect class="cls-1" x="913.83" y="451.73" width="18.86" height="105.99"/><polygon class="cls-1" points="1035.97 530.47 1035.68 530.47 984.33 451.73 959.33 451.73 959.33 557.71 978.19 557.71 978.19 476.42 978.49 476.42 1030.88 557.71 1054.84 557.71 1054.84 451.73 1035.97 451.73 1035.97 530.47"/><path class="cls-1" d="M1132.38,451.73h-16.31l-46.11,106h21.1l9.59-24.25h45.95l9.89,24.25h21.56Zm-25.3,65.56,16.62-43.11L1140,517.29Z"/><polygon class="cls-1" points="1288.74 451.73 1269.88 451.73 1269.88 530.47 1269.58 530.47 1218.23 451.73 1193.23 451.73 1193.23 557.71 1212.09 557.71 1212.09 476.42 1212.39 476.42 1264.79 557.71 1288.74 557.71 1288.74 451.73"/><path class="cls-1" d="M1405.59,541.54,1390,530.47a34.05,34.05,0,0,1-11.31,9.8,27.27,27.27,0,0,1-12.49,3.07,35.89,35.89,0,0,1-14.9-3,34.42,34.42,0,0,1-11.45-8.24,36.66,36.66,0,0,1-7.41-12.42,45.49,45.49,0,0,1-2.62-15.72,41.25,41.25,0,0,1,2.62-14.82,36.47,36.47,0,0,1,7.41-12,34,34,0,0,1,11.45-8.09,36.85,36.85,0,0,1,14.9-2.92,30.53,30.53,0,0,1,11,2.1q5.46,2.1,11.3,8.38l14.67-10.77q-7.93-9.14-17.14-12.95a51.57,51.57,0,0,0-20-3.82,61.79,61.79,0,0,0-22.53,4,50.77,50.77,0,0,0-17.67,11.3,51.79,51.79,0,0,0-11.6,17.74,61.49,61.49,0,0,0-4.19,23.13,58.89,58.89,0,0,0,4.19,22.6,50.5,50.5,0,0,0,29.27,28.67,61.79,61.79,0,0,0,22.53,4,54.66,54.66,0,0,0,22-4.49A42.44,42.44,0,0,0,1405.59,541.54Z"/><rect class="cls-1" x="1420.93" y="451.73" width="18.86" height="105.99"/><path class="cls-1" d="M1485.39,533.46h46l9.88,24.25h21.56l-45.66-106h-16.32l-46.11,106h21.11Zm23.06-59.28,16.31,43.11h-32.93Z"/><polygon class="cls-1" points="1641.9 540.65 1596.84 540.65 1596.84 451.73 1577.98 451.73 1577.98 557.71 1641.9 557.71 1641.9 540.65"/><path class="cls-1" d="M889.16,699.14a27.27,27.27,0,0,1-12.49,3.07,35.89,35.89,0,0,1-14.9-3A34.56,34.56,0,0,1,850.31,691a37.08,37.08,0,0,1-7.41-12.42,45.74,45.74,0,0,1-2.62-15.73A41.45,41.45,0,0,1,842.9,648a36.81,36.81,0,0,1,7.41-12,34.16,34.16,0,0,1,11.46-8.09,36.68,36.68,0,0,1,14.9-2.92,30.53,30.53,0,0,1,11,2.1q5.46,2.1,11.3,8.38l14.67-10.78q-7.93-9.12-17.14-12.95a51.75,51.75,0,0,0-20-3.81,62,62,0,0,0-22.53,4,50.94,50.94,0,0,0-17.67,11.31,51.79,51.79,0,0,0-11.6,17.74A61.28,61.28,0,0,0,820.53,664a58.75,58.75,0,0,0,4.19,22.61A50.5,50.5,0,0,0,854,715.31a62,62,0,0,0,22.53,4,54.5,54.5,0,0,0,22-4.5A42.34,42.34,0,0,0,916,700.41l-15.57-11.08A34,34,0,0,1,889.16,699.14Z"/><path class="cls-1" d="M1020.18,622.72a49.7,49.7,0,0,0-17.81-11.15,62.85,62.85,0,0,0-22.75-3.67,62.09,62.09,0,0,0-22.54,4,51,51,0,0,0-17.66,11.31,51.65,51.65,0,0,0-11.6,17.74A61.28,61.28,0,0,0,923.63,664a58.75,58.75,0,0,0,4.19,22.61,50.52,50.52,0,0,0,29.26,28.67,62.09,62.09,0,0,0,22.54,4,63.13,63.13,0,0,0,22.75-4.27,53.18,53.18,0,0,0,17.81-11.46A51.78,51.78,0,0,0,1031.86,686a58.89,58.89,0,0,0,4.19-22.6,60.91,60.91,0,0,0-4.19-23.06A51.54,51.54,0,0,0,1020.18,622.72Zm-6.51,55.84a37.08,37.08,0,0,1-7.41,12.42,34.24,34.24,0,0,1-11.53,8.24,36.39,36.39,0,0,1-15,3,35.92,35.92,0,0,1-14.9-3A34.63,34.63,0,0,1,953.41,691,37.08,37.08,0,0,1,946,678.56a45.51,45.51,0,0,1-2.62-15.73A41.23,41.23,0,0,1,946,648a36.81,36.81,0,0,1,7.41-12,34.22,34.22,0,0,1,11.45-8.09,36.72,36.72,0,0,1,14.9-2.92,37.19,37.19,0,0,1,15,2.92,33.86,33.86,0,0,1,11.53,8.09,36.81,36.81,0,0,1,7.41,12,41.45,41.45,0,0,1,2.62,14.81A45.74,45.74,0,0,1,1013.67,678.56Z"/><polygon class="cls-1" points="1133.84 689.34 1133.54 689.34 1082.19 610.59 1057.19 610.59 1057.19 716.58 1076.05 716.58 1076.05 635.29 1076.35 635.29 1128.74 716.58 1152.7 716.58 1152.7 610.59 1133.84 610.59 1133.84 689.34"/><path class="cls-1" d="M1232.15,661.19A49.54,49.54,0,0,0,1220,655.8q-6.58-1.95-12.13-4a36.47,36.47,0,0,1-9.27-4.94,9.71,9.71,0,0,1-3.75-8.24,12.31,12.31,0,0,1,1.5-6.21,12.45,12.45,0,0,1,4-4.26,17.25,17.25,0,0,1,5.54-2.4,26.77,26.77,0,0,1,6.37-.75,28.09,28.09,0,0,1,10.55,2,17.44,17.44,0,0,1,8,6.37l13.77-14.52a37.57,37.57,0,0,0-14.14-8.39,52.34,52.34,0,0,0-16.25-2.54,53.94,53.94,0,0,0-14.37,1.94,38.68,38.68,0,0,0-12.5,5.91,31,31,0,0,0-8.83,10,28.52,28.52,0,0,0-3.37,14.22q0,9.44,3.74,15.05a29.64,29.64,0,0,0,9.28,9,50.41,50.41,0,0,0,12.13,5.31q6.59,2,12.13,4.12a33.14,33.14,0,0,1,9.28,5.32q3.73,3.13,3.74,9a12.2,12.2,0,0,1-1.65,6.36,13.91,13.91,0,0,1-4.34,4.56,20.24,20.24,0,0,1-6,2.7,24.86,24.86,0,0,1-6.59.9,25.49,25.49,0,0,1-11.89-2.92,23.75,23.75,0,0,1-9.06-8.16l-14.22,13.77A36.57,36.57,0,0,0,1187.4,716a55.69,55.69,0,0,0,19,3.3,51.89,51.89,0,0,0,14.82-2.1,36.5,36.5,0,0,0,12.35-6.29,30.4,30.4,0,0,0,8.46-10.55,33.34,33.34,0,0,0,3.14-14.9q0-9.44-3.74-15.12A30.06,30.06,0,0,0,1232.15,661.19Z"/><path class="cls-1" d="M1332.31,677.06a30.14,30.14,0,0,1-1.2,8.16,23,23,0,0,1-4,7.86,21.34,21.34,0,0,1-7.33,5.91,28.7,28.7,0,0,1-22.61,0,21.28,21.28,0,0,1-7.34-5.91,23.15,23.15,0,0,1-4-7.86,30.11,30.11,0,0,1-1.19-8.16V610.59h-18.86v67.07a44.4,44.4,0,0,0,3.22,17.29,37.19,37.19,0,0,0,9,13.1,40.24,40.24,0,0,0,13.55,8.3,50.29,50.29,0,0,0,33.83,0,39.4,39.4,0,0,0,13.47-8.3,38.69,38.69,0,0,0,9-13.1,43.51,43.51,0,0,0,3.3-17.29V610.59h-18.86Z"/><polygon class="cls-1" points="1396.43 610.59 1377.57 610.59 1377.57 716.58 1441.5 716.58 1441.5 699.51 1396.43 699.51 1396.43 610.59"/><polygon class="cls-1" points="1519.63 610.59 1435.79 610.59 1435.79 627.66 1468.28 627.66 1468.28 716.58 1487.14 716.58 1487.14 627.66 1519.63 627.66 1519.63 610.59"/><path class="cls-1" d="M1559.07,610.59l-46.1,106h21.1l9.58-24.25h46l9.88,24.25h21.56l-45.66-106Zm-9,65.57,16.62-43.11L1583,676.16Z"/><polygon class="cls-1" points="1712.89 689.34 1712.59 689.34 1661.24 610.59 1636.24 610.59 1636.24 716.58 1655.1 716.58 1655.1 635.29 1655.4 635.29 1707.8 716.58 1731.75 716.58 1731.75 610.59 1712.89 610.59 1712.89 689.34"/><path class="cls-1" d="M1821.72,699.14a27.27,27.27,0,0,1-12.49,3.07,35.86,35.86,0,0,1-14.9-3,34.56,34.56,0,0,1-11.46-8.24,37.08,37.08,0,0,1-7.41-12.42,45.74,45.74,0,0,1-2.62-15.73,41.45,41.45,0,0,1,2.62-14.81,36.81,36.81,0,0,1,7.41-12,34.16,34.16,0,0,1,11.46-8.09,36.65,36.65,0,0,1,14.9-2.92,30.53,30.53,0,0,1,11,2.1q5.46,2.1,11.3,8.38l14.67-10.78q-7.93-9.12-17.14-12.95a51.75,51.75,0,0,0-20-3.81,62.09,62.09,0,0,0-22.54,4,51,51,0,0,0-17.66,11.31,51.79,51.79,0,0,0-11.6,17.74,61.28,61.28,0,0,0-4.19,23.12,58.75,58.75,0,0,0,4.19,22.61,50.52,50.52,0,0,0,29.26,28.67,62.09,62.09,0,0,0,22.54,4,54.5,54.5,0,0,0,22-4.5,42.4,42.4,0,0,0,17.52-14.37L1833,689.33A34,34,0,0,1,1821.72,699.14Z"/><polygon class="cls-1" points="1928.41 610.59 1902.07 652.81 1876.02 610.59 1852.37 610.59 1892.18 671.22 1892.18 716.58 1911.05 716.58 1911.05 671.22 1950.87 610.59 1928.41 610.59"/></svg>