<svg id="Layer_1" data-name="Layer 1" xmlns="http://www.w3.org/2000/svg" viewBox="0 0 2363.23 1200"><defs><style>.cls-1,.cls-2{fill:#231f20;}.cls-2{fill-rule:evenodd;}</style></defs><title>Toastbox</title><path class="cls-1" d="M77.5,475.52c0-16.31,13.63-29.52,30.43-29.52h47.4v59h-47.4C91.13,505,77.5,491.82,77.5,475.52Z"/><path class="cls-1" d="M459,733.12V678.56a71,71,0,0,0,70.22-71V567.09a71,71,0,0,0-70.22-71V442.42h5.45A131.85,131.85,0,0,1,596.31,574.26v27A131.85,131.85,0,0,1,464.46,733.13Zm-9.93-290.7.08,53.93a71,71,0,0,0-64.82,70.74v40.48a71,71,0,0,0,64.83,70.74v54.81A131.85,131.85,0,0,1,317.23,601.27v-27A131.85,131.85,0,0,1,449.08,442.42Z"/><path class="cls-1" d="M165.17,446H294c16.81,0,30.43,13.21,30.43,29.52S310.77,505,294,505H236.73v196.8a30.43,30.43,0,0,1-30.43,30.43H195.6a30.42,30.42,0,0,1-30.43-30.43V446Z"/><path class="cls-2" d="M715.28,454.94l33.1,90.35L684,715.24s-9.84,22.36-29.51,24.16-32.2.89-32.2.89-25,2.68-14.32-23.26C620.2,687.41,715.28,454.94,715.28,454.94Z"/><path class="cls-2" d="M722,443.32h46.07s16.55.89,21.91,12.07C797,470,898.65,720.61,898.65,720.61s7.61,19.23-13,19.23-52.33,5.81-65.29-26.83-16.55-43.39-16.55-43.39H711.26l19.68-58.14h51.88Z"/><path class="cls-2" d="M1011.36,498.77V438s55.89,4.7,77.37,38.47c21.92,34.43,16.55,58.13-.89,69.32s-40.59,7.59-48.3-18.79C1031,497.88,1011.36,498.77,1011.36,498.77Z"/><path class="cls-2" d="M1002.42,438.84l-.45,60.38s-24.64,1.24-25.5,20.57c-.89,20.13,22.37,23.27,22.37,23.27s120.31,19.22,114.49,104.65c-5.7,83.79-45.17,89.45-102.86,95.26V681.25s34.88,1.79,34.88-29.07c0-27.73-42-32.65-42-32.65s-106.27-17-90.79-103.32C927.28,433.92,1002.42,438.84,1002.42,438.84Z"/><path class="cls-2" d="M1002,681l-.11,61.83s-82.62-6.35-96.05-70.55c-13.2-63.07,43.83-65.3,55.46-40.7s13.49,43.5,30.86,47.4C1001.07,681,1002,681,1002,681Z"/><path class="cls-1" d="M1475.18,476a30.42,30.42,0,0,1,30.43-30.42h27.69V738.5h-27.69a30.42,30.42,0,0,1-30.43-30.43Z"/><path class="cls-1" d="M1544.48,577V560.5h54.07a30.41,30.41,0,1,0,0-60.82h-54.07V446.45h65.6c2.74-.06,5,0,7.76,0,40.75,0,73.79,33.43,73.79,74.69a74.86,74.86,0,0,1-33.43,62.53c27.56,12.39,46.84,40.81,46.84,73.88,0,44.46-34.84,80.5-77.82,80.5H1544V684.38h63A30.43,30.43,0,0,0,1637.51,654V643.17a30.44,30.44,0,0,0-30.43-30.43h-63V577Z"/><path class="cls-2" d="M2020.36,475.52s-4.85-7-4.7-14.32c.12-6.2,4.08-12.86,15-13,21.47-.21,32.2,0,32.2,0a31.38,31.38,0,0,1,26.39,13.42L2135,524.52,2094,579.44C2055.44,525,2020.36,475.52,2020.36,475.52Z"/><path class="cls-2" d="M2260.52,475.52s4.84-7,4.7-14.32c-.12-6.2-4.09-12.86-15-13-21.48-.21-32.21,0-32.21,0a31.36,31.36,0,0,0-26.38,13.42L2013.2,706.74s-5.19,7.87-3.81,16.33c1,6,5.83,13.45,15.88,13.64,21.92.41,48.76,4.48,64-18.33S2260.52,475.52,2260.52,475.52Z"/><path class="cls-1" d="M1866.06,733.12V678.56a71,71,0,0,0,70.21-71V567.09a71,71,0,0,0-70.21-71V442.42h5.45a131.84,131.84,0,0,1,131.84,131.84v27a131.85,131.85,0,0,1-131.84,131.86Zm-9.93-290.7.08,53.93a71,71,0,0,0-64.83,70.74v40.48a71,71,0,0,0,64.83,70.74v54.81a131.85,131.85,0,0,1-131.93-131.85v-27A131.85,131.85,0,0,1,1856.13,442.42Z"/><path class="cls-1" d="M1123.17,475.52c0-16.31,13.62-29.52,30.43-29.52H1201v59H1153.6C1136.79,505,1123.17,491.82,1123.17,475.52Z"/><path class="cls-1" d="M1210.83,446h128.8c16.8,0,30.42,13.21,30.42,29.52S1356.43,505,1339.63,505h-57.24v196.8A30.42,30.42,0,0,1,1252,732.26h-10.7a30.42,30.42,0,0,1-30.42-30.43V446Z"/><path class="cls-2" d="M2268.41,709.54s4.83,7,4.7,14.31c-.12,6.21-4.1,12.87-15,13-21.46.2-32.19,0-32.19,0a31.39,31.39,0,0,1-26.38-13.42l-51.28-70.11,40.26-57.69C2227,650.06,2268.41,709.54,2268.41,709.54Z"/></svg>