<svg id="Layer_1" data-name="Layer 1" xmlns="http://www.w3.org/2000/svg" viewBox="0 0 1450.86 1200"><defs><style>.cls-1{fill:#231f20;}</style></defs><title>Youadme</title><path class="cls-1" d="M1009.31,1105.35H435.78c-.75-1-1.9-.75-2.92-.82a193.52,193.52,0,0,1-27.94-3.94c-89.4-19-156.08-94.34-164.46-185.74-.23-2.52-.13-5.17-1.63-7.43V334.59c.55-4,1.28-8.06,1.62-12.12a202.7,202.7,0,0,1,3.7-24.77c20.35-96.32,105.77-165.62,204.2-165.62h554.81a209.74,209.74,0,0,1,43,4.45c100.51,21,166.14,110.9,165.89,202.89-.51,186.22-.17,372.44-.13,558.67a195.57,195.57,0,0,1-3.16,36.72,209.52,209.52,0,0,1-152.23,163.49C1041,1102.41,1025.22,1104.19,1009.31,1105.35ZM800.11,721.51c-7.48-11.12-17.6-16.7-30.82-16.59-12.88.12-23.88,3.9-31.53,15.63-1-3.35-1.81-6.23-2.74-9.07-1.08-3.28-3.34-4.87-6.88-4.78-4.1.1-8.2,0-12.3,0-5.16.1-7.31,2.36-7.45,7.63,0,.61,0,1.21,0,1.82v93c0,1.21,0,2.43.06,3.64.34,3.59,2.22,5.84,5.71,5.94q11.16.32,22.33,0c3.64-.09,5.42-2.16,5.75-5.82.12-1.36.06-2.73.06-4.1,0-17.63,0-35.26,0-52.9a19.71,19.71,0,0,1,6.33-15.08c9.38-8.77,23.13-4.81,26.61,7.54a30.72,30.72,0,0,1,.73,8.59c0,18.39,0,36.78,0,55.17,0,5.18,1.37,6.6,6.4,6.67,6.84.08,13.68.09,20.52,0,4.11-.06,5.75-1.7,6.1-5.76.12-1.36.06-2.74.06-4.1q0-26,0-52a34.47,34.47,0,0,1,.6-7.25,17.06,17.06,0,0,1,16.18-13.58c7.73-.05,13.91,5.12,15.83,13.17a28.73,28.73,0,0,1,.63,6.79q0,27.36,0,54.72c0,7.17.88,8,8.21,8,5.16,0,10.34-.2,15.49.05,8.94.42,9.48-2.71,9.45-9.51-.08-17.93,0-35.87,0-53.81a76.85,76.85,0,0,0-.95-13.62,69.69,69.69,0,0,0-2.52-10.15c-7.55-22.24-27-30.8-48.17-25.42A42.16,42.16,0,0,0,800.11,721.51Zm-92-264.6A98.13,98.13,0,0,0,610,554.85c-.13,53.84,43.64,97.79,97.53,98,54.16.17,98.27-43.59,98.38-97.6S762.1,457,708.15,456.91Zm45,116.82c-7.58,20.86-26.78,33.23-49,31.63a47.46,47.46,0,0,1-43-37.76c-2.68-12.37-1.88-24.54,3.74-36,8.77-17.86,23.34-26.89,36.56-27.36,30-.36,50.85,16.55,54.45,43A54.83,54.83,0,0,1,753.13,573.73ZM655.52,712.68a29.12,29.12,0,0,0-14.18-6.89c-21-3.31-38.61,2.87-51.76,19.63C577.36,741,574.49,759,579,778.06c4.47,18.8,15.53,32.54,33.87,39.43,16.61,6.24,32.23,4.7,45.86-7.73.55-.5,1.17-.92,1.93-1.51,1.12,2.53,2.13,4.88,3.2,7.21,1,2.1,2.47,3.43,4.91,3.43,6.23,0,12.46.13,18.69,0,4.06-.12,6-2.28,6.3-6.34.05-.75,0-1.52,0-2.28q0-64.08,0-128.15c0-6.16-2.65-8.88-8.82-9-5.62-.08-11.24-.07-16.87,0-6.14.07-8.2,2.12-8.23,8.23-.05,9.43,0,18.85,0,28.28v6.84C657.78,714.65,656.67,713.64,655.52,712.68ZM660,774.11a27.59,27.59,0,0,1-31.9,15.67c-10.59-2.63-18-12-19-24-.07-.9-.08-1.82-.12-2.72a30,30,0,0,1,2.08-11.57c7.22-18.62,26.57-20.29,38.59-12.3A28.45,28.45,0,0,1,660,774.11ZM873.29,466.57c-.19-3.9-2.21-6.21-6-6.77a24.53,24.53,0,0,0-3.64-.09H832.18c-.76,0-1.52,0-2.28,0-4.22.21-6,2-6.2,6.24-.06,1.06,0,2.13,0,3.19v56.54q0,24.39,0,48.78a99.83,99.83,0,0,0,2.38,23.07c6.13,25.5,21.13,43.09,46.54,50.75a111.18,111.18,0,0,0,64.68,0c19-5.59,32.69-17.49,40.93-35.59,5.07-11.13,7.15-22.93,7.22-35,.2-36.78.12-73.56.11-110.34,0-5.57-2-7.56-7.8-7.59-10.63-.05-21.27,0-31.9,0-1.06,0-2.13,0-3.19,0-4.69.22-6.48,2.06-6.65,6.79,0,1.22,0,2.43,0,3.65q0,51.06,0,102.13a72.72,72.72,0,0,1-.55,9.09c-1.88,15-12,25.49-26.92,27.24-15.26,1.81-30.17-5-34.29-24a55,55,0,0,1-.9-11.79q0-51.51,0-103C873.3,468.7,873.34,467.63,873.29,466.57Zm-425,.8Q477,518.13,505.74,568.89a14.06,14.06,0,0,1,1.87,7.33c-.07,21.58,0,43.17,0,64.75a38.29,38.29,0,0,0,.16,4.55,4.67,4.67,0,0,0,4.07,4.29,19.1,19.1,0,0,0,3.63.23q16.63,0,33.27,0a19.07,19.07,0,0,0,4.07-.32c2.73-.59,3.87-1.91,4.18-4.66a34.16,34.16,0,0,0,.06-3.65c0-21.43.05-42.86,0-64.29a16.41,16.41,0,0,1,2.21-8.6c14.41-25.35,28.7-50.77,43.08-76.13,5.4-9.5,10.49-19.18,16.31-28.45,1.6-2.55.8-3.94-2.19-4.21-.76-.06-1.52,0-2.28,0-14.13,0-28.26.12-42.39-.08-4.54-.06-7.26,1.45-9.14,5.71-5,11.38-10.43,22.61-15.7,33.89-4.61,9.88-9.25,19.75-14.26,30.45-1.14-2.26-1.84-3.58-2.48-4.93-9.31-19.77-18.7-39.52-27.86-59.36-1.93-4.18-4.58-5.83-9.16-5.76-14.27.21-28.56.08-42.84.08a19.25,19.25,0,0,0-2.28,0c-2.35.27-3.14,1.64-2.07,3.79C446.59,464.87,447.59,466.05,448.33,467.37ZM964.65,1028c0-6,0-6-6.06-6H492.69a189.72,189.72,0,0,1-27.27-1.64c-35-5.13-65.63-19.63-91.12-44.19-34.1-32.86-51.43-73.27-51.49-120.6q-.27-234.18-.07-468.36c0-1.06,0-2.13,0-3.19,0-4.28,0-4.31-4.12-4.32q-9.58,0-19.15,0c-5.77,0-5.16-.52-5.17,5.09q0,235.54,0,471.09a185.35,185.35,0,0,0,2.19,30c8,48.8,30.87,89.23,69,120.64,36.08,29.7,77.9,44,124.55,44q112.83.13,225.65,0H958.24a34,34,0,0,1,3.64,0c2.3.24,2.83-.87,2.8-3C964.59,1041.07,964.65,1034.54,964.65,1028Zm128.73-116.12c-8.61,1.79-14.5,7.1-17.09,15.34-2.71,8.59-2.65,17.09,4,24.35a107.73,107.73,0,0,0,8.12,7.29c3.6,3.21,4.56,7,2.73,11.51a45.29,45.29,0,0,1-4.08,7.61c-3.14,4.86-7,9.13-11.55,14.34A22.56,22.56,0,0,1,1079,995c1.56,1.79,2.83,2,4.93.56,12.51-8.89,23.35-19.35,31.5-32.46a59.06,59.06,0,0,0,8.45-21C1127.32,922.58,1112.56,907.9,1093.38,911.88Zm65.36-61.33q0-121.53,0-243.07V382.65a209,209,0,0,0-2.5-33.14c-6.56-40.88-24.22-76.29-53.33-105.62-38.23-38.52-84.77-58-139.08-58.08q-235-.21-470-.05h-.91c-5,0-4.79-.51-4.78,4.58v17.78c0,6.1,0,6.1,6,6.1H962.78a159.32,159.32,0,0,1,30.37,2.59c55.52,10.79,95.83,41.7,121,92.23,11.65,23.41,16.11,48.53,16.11,74.58q-.08,232.82,0,465.63c0,1.36.11,2.74,0,4.1-.22,2.41.81,3.11,3.15,3.06,6.54-.13,13.07,0,19.61,0C1159.65,856.31,1158.73,857.15,1158.74,850.55ZM1039,913.07c-9.26-3.46-18.18-2.55-26.13,4-8.86,7.3-12.88,26.68,0,37.12q3,2.45,5.87,5.05a9,9,0,0,1,2.53,10.74,43.89,43.89,0,0,1-4.72,8.81,115.17,115.17,0,0,1-10.63,13c.82.9,1.43,1.57,2.05,2.23s1.12,1,1.59,1.62c1.23,1.58,2.4,1.22,3.86.21,14.39-10.07,26.55-22.21,34.88-37.84,4.14-7.76,6.68-16,5.71-24.93C1053,923.46,1048.05,916.45,1039,913.07ZM560.29,706.23c-3.8-.05-7.61.15-11.4-.06-3.55-.19-5.64,1.13-6.87,4.55-1.13,3.1-1.74,6.42-3.42,9.34-1.28-.62-1.83-1.76-2.63-2.66a36.21,36.21,0,0,0-17.06-10.86c-8.41-2.48-16.83-2.13-25.21-.16-23.39,5.51-40.12,24.1-43.62,48.27a57.64,57.64,0,0,0,40,63.76c16,4.9,30.92,3.16,43.85-8.45.52-.47,1-1.15,2-.81.57,1.63,1.22,3.33,1.76,5.07,1,3.4,3.34,4.79,6.85,4.72,5.47-.11,10.94-.06,16.41,0a7.31,7.31,0,0,0,5.79-2.14c1.61-1.72,1.55-3.88,1.55-6q0-16.65,0-33.3,0-31.46,0-62.93C568.34,708.11,566.55,706.31,560.29,706.23Zm-27.37,66.55a27.63,27.63,0,0,1-32.38,17c-10.58-2.53-18.06-11.88-19.08-23.91-.09-1,0-2.12,0-3.18a28.12,28.12,0,0,1,1.9-11.12c5.66-15.14,21.8-21.28,36.19-13.81A28.45,28.45,0,0,1,532.92,772.78ZM421.59,322.61c9.61-.81,16.77-5.71,20.07-14.81,3.37-9.32,3.32-18.55-4.41-26.2-1.72-1.71-3.58-3.28-5.43-4.85-6.27-5.34-7-8.83-3.19-16.29A59.75,59.75,0,0,1,436,249.55c2-2.46,4.12-4.83,6.32-7.4-1.12-1.19-2.22-2.22-3.15-3.37-1.38-1.73-2.6-1.88-4.53-.52-13,9.21-24.27,20.15-32.52,33.94a55.1,55.1,0,0,0-7.85,21.65C392.16,311,404.41,324.05,421.59,322.61Zm-72.4.09c9,0,16.58-4.14,20.92-11.48a24.64,24.64,0,0,0-4.38-31.15c-2.1-2-4.38-3.75-6.48-5.71-3-2.79-3.57-6.21-2.3-10a33.89,33.89,0,0,1,3.87-7.7,77.28,77.28,0,0,1,9.88-12.47c1.57-1.6,1.55-2.72-.14-4a12.58,12.58,0,0,1-1.93-1.93c-1.09-1.35-2.11-1.23-3.47-.28-15.43,10.78-28.34,23.81-36.58,41a42.09,42.09,0,0,0-4.42,18.89C324.34,312.53,334.5,322.67,349.19,322.7ZM954.27,707c-20.72-5.81-39.31-.56-54.13,15.13-25.86,27.37-20.48,74.52,17.73,92.84,22,10.52,46.5,6.69,64.39-9.71,3.56-3.26,3.82-6.18.69-9.85-3-3.46-5.93-6.93-9.1-10.2-3.41-3.52-5.35-3.66-9-.54-5.16,4.39-11.25,6.63-17.75,7.66s-13.07.51-19-2.88a21,21,0,0,1-11-15.84,16.36,16.36,0,0,1,5.26-.37q28.95,0,57.89,0a51.57,51.57,0,0,0,6.8-.47c5.46-.75,7.09-2.44,7.48-7.94a53.39,53.39,0,0,0-1-16.78C988.21,726.92,975.06,712.79,954.27,707Zm-36.39,40.72c5.75-9.15,12-16.14,23-15.73a23,23,0,0,1,21.3,15.73Z"/></svg>